<svg width="13" height="421" viewBox="0 0 13 421" fill="none" xmlns="http://www.w3.org/2000/svg">
<path d="M12.5766 99.0449V119.745H0.0356445V102.251H5.23725V99.0449H12.6122H12.5766ZM10.047 117.393V101.396H7.41059V117.393H10.047ZM5.23725 104.603H2.52962V117.393H5.23725V104.603Z" fill="black"/>
<path d="M12.5766 65.5904V69.0107H0.0356445V66.6593H9.79769V66.1961L0.0356445 51.2681V48.2754H12.5766V50.6268H2.8146V50.6624L12.5766 65.5904Z" fill="black"/>
<path d="M12.5766 17.315V20.7353H0.0356445V18.3839H9.79769V17.9207L0.0356445 2.99271V0H12.5766V2.35144H2.8146V2.38705L12.5766 17.315Z" fill="black"/>
<path d="M12.5766 240.95H0.0356445V243.622H12.5766V240.95Z" fill="black"/>
<path d="M12.5766 219.965H0.0356445V222.637H12.5766V219.965Z" fill="black"/>
<path d="M7.51723 221.319H4.73828V242.09H7.51723V221.319Z" fill="black"/>
<path d="M12.5766 93.2021H0.0356445V95.8742H12.5766V93.2021Z" fill="black"/>
<path d="M12.5766 72.1816H0.0356445V74.8537H12.5766V72.1816Z" fill="black"/>
<path d="M7.51723 73.5356H4.73828V94.3066H7.51723V73.5356Z" fill="black"/>
<path d="M12.5766 156.655V159.149H2.42274V167.913H0.0356445V147.926H2.42274V156.655H12.5766Z" fill="black"/>
<path d="M12.5766 170.977V190.822H0.0356445V170.977H2.35142V188.506H10.0827V170.977H12.5766Z" fill="black"/>
<path d="M12.5766 122.702V125.196H9.04934V142.261H12.5766V144.755H8.19431H0V122.702H8.19431H12.5766ZM6.73357 125.196H2.49387V142.261H6.73357V125.196Z" fill="black"/>
<path d="M12.5766 194.207V196.701H9.04934V213.766H12.5766V216.26H8.19431H0V194.207H8.19431H12.5766ZM6.73357 196.701H2.49387V213.766H6.73357V196.701Z" fill="black"/>
<path d="M6.02106 28.8585L2.42274 24.12L0.0356445 25.4026L5.48667 32.5994V42.397H0.0356445V44.784H12.5766V42.397H7.83811V31.7443L8.65758 26.2576H12.5766V23.835H7.01863L6.02106 28.8585Z" fill="black"/>
<path d="M12.5766 373.057V394.647H0.0356445V374.981H2.56518V392.118H4.73852L4.80974 373.021H12.6122L12.5766 373.057ZM10.047 392.154V375.587H6.94742L6.8762 392.154H10.0114H10.047Z" fill="black"/>
<path d="M5.2017 327.703H0.0356445V345.339H2.4583V330.268H5.2017V345.339H7.62435V326.812H10.0114V345.339H12.5766V324.247H5.2017V327.703Z" fill="black"/>
<path d="M12.5766 348.118V350.612H2.52962V350.647L12.5766 366.751V370.456H0.0356445V367.962H10.0827V367.463L0.0356445 351.36V348.118H12.5766Z" fill="black"/>
<path d="M0.0356445 303.191H5.02349V318.939H0.0356445V321.504H12.5766V318.939H7.58869V303.191H12.5766V300.59H7.58869H5.02349H0.0356445V303.191Z" fill="black"/>
<path d="M2.38708 276.649H0.0356445V297.883H5.05916H7.55313H12.5766V276.649H10.1183V295.425H7.55313V283.204H5.05916V295.425H2.38708V276.649Z" fill="black"/>
<path d="M12.5766 252.636V273.905H0.0356445V252.636H2.31587V271.518H10.1539V252.636H12.5766Z" fill="black"/>
<path d="M12.612 246.899H10.1182V249.393H12.612V246.899Z" fill="black"/>
</svg>
