<svg width="417" height="14" viewBox="0 0 417 14" fill="none" xmlns="http://www.w3.org/2000/svg">
<path d="M295.634 13.3959H274.935V0.85498H292.428V6.05659H295.634V13.4315V13.3959ZM277.286 10.8663H293.283V8.22987H277.286V10.8663ZM277.286 6.05659H290.076V3.3133H277.286V6.05659Z" fill="white"/>
<path d="M329.089 13.3959H325.668V0.85498H328.02V10.6169H328.483L343.411 0.85498H346.404V13.3959H344.052V3.59827H344.017L329.089 13.3959Z" fill="white"/>
<path d="M377.364 13.3959H373.944V0.85498H376.295V10.6169H376.759L391.687 0.85498H394.679V13.3959H392.328V3.59827H392.292L377.364 13.3959Z" fill="white"/>
<path d="M153.694 0.85498H151.021V13.3959H153.694V0.85498Z" fill="white"/>
<path d="M174.678 0.85498H172.006V13.3959H174.678V0.85498Z" fill="white"/>
<path d="M173.36 5.52222H152.589V8.30117H173.36V5.52222Z" fill="white"/>
<path d="M301.477 0.85498H298.805V13.3959H301.477V0.85498Z" fill="white"/>
<path d="M322.462 0.85498H319.79V13.3959H322.462V0.85498Z" fill="white"/>
<path d="M321.143 5.52222H300.373V8.30117H321.143V5.52222Z" fill="white"/>
<path d="M238.025 13.3959H235.531V3.24203H226.766V0.85498H246.789V3.24203H238.025V13.3959Z" fill="white"/>
<path d="M223.702 13.3959H203.857V0.85498H223.702V3.17076H206.209V10.8663H223.702V13.3959Z" fill="white"/>
<path d="M271.977 13.3959H269.483V9.86879H252.418V13.3959H249.924V9.01371V0.819336H271.977V9.01371V13.3959ZM252.418 7.55296H269.483V3.31331H252.418V7.55296Z" fill="white"/>
<path d="M200.509 13.3959H198.015V9.86879H180.949V13.3959H178.455V9.01371V0.819336H200.509V9.01371V13.3959ZM180.949 7.55296H198.015V3.31331H180.949V7.55296Z" fill="white"/>
<path d="M365.856 6.8404L370.559 3.24203L369.276 0.85498L362.08 6.30601H352.282V0.85498H349.895V13.3959H352.282V8.65744H362.935L368.457 9.44126V13.3959H370.844V7.80236L365.856 6.8404Z" fill="white"/>
<path d="M21.6221 13.3959H0.0317383V0.85498H19.6982V3.38451H2.56127V5.5578L21.6577 5.62907V13.4315L21.6221 13.3959ZM2.52561 10.8663H19.0926V7.76675L2.52561 7.69548V10.8307V10.8663Z" fill="white"/>
<path d="M66.976 6.021V0.819336H49.376V3.24204H64.4108V6.021H49.376V8.40804H67.8667V10.8307H49.376V13.3959H70.4318V6.021H66.976Z" fill="white"/>
<path d="M46.5611 13.3959H44.0672V3.31331H44.0316L27.9279 13.3959H24.2227V0.819336H26.7165V10.902H27.2154L43.319 0.819336H46.5611V13.3959Z" fill="white"/>
<path d="M91.5235 0.819336V5.84285H75.7405V0.819336H73.1753V13.3959H75.7405V8.40804H91.5235V13.3959H94.0887V8.40804V5.84285V0.819336H91.5235Z" fill="white"/>
<path d="M118.066 3.17076V0.85498H96.7964V5.87849V8.33675V13.3959H118.066V10.9019H99.2547V8.33675H111.475V5.87849H99.2547V3.17076H118.066Z" fill="white"/>
<path d="M142.079 13.3959H120.773V0.819336H142.079V3.13517H123.196V10.9732H142.079V13.3959Z" fill="white"/>
<path d="M147.815 10.9021H145.321V13.396H147.815V10.9021Z" fill="white"/>
</svg>
