<svg width="230" height="272" viewBox="0 0 230 272" fill="none" xmlns="http://www.w3.org/2000/svg">
<path d="M140.165 265.537C126.917 258.389 122.707 241.889 115.745 228.543C104.226 206.449 83.46 191.413 61.8242 178.406V96.8857H167.805V270.245C158.259 269.553 148.48 270.028 140.165 265.545V265.537Z" fill="black"/>
<path d="M228.407 32.8965C228.407 50.395 214.216 64.5855 196.718 64.5855H32.8882C15.3896 64.5855 1.19922 50.395 1.19922 32.8965C1.19922 15.3979 15.3896 1.20752 32.8882 1.20752H196.718C214.216 1.20752 228.407 15.3979 228.407 32.8965Z" fill="black"/>
<path d="M49.0185 96.2661L180.596 96.2661V64.5772L49.0185 64.5772V96.2661Z" fill="black"/>
<path d="M28.4131 59.7235C12.7497 59.7235 0 46.9819 0 31.3186C0 30.6505 0.539284 30.1112 1.20735 30.1112C1.87542 30.1112 2.4147 30.6505 2.4147 31.3186C2.4147 45.6539 14.0778 57.3088 28.4131 57.3088C39.7461 57.3088 48.9703 48.0847 48.9703 36.7516C48.9703 27.8172 41.702 20.549 32.7676 20.549C25.7569 20.549 20.0501 26.2557 20.0501 33.2664C20.0501 38.7478 24.5092 43.1989 29.9826 43.1989C34.2324 43.1989 37.6855 39.7459 37.6855 35.496C37.6855 32.2281 35.0294 29.5719 31.7615 29.5719C31.0934 29.5719 30.5541 29.0327 30.5541 28.3646C30.5541 27.6965 31.0934 27.1572 31.7615 27.1572C36.3575 27.1572 40.1002 30.9 40.1002 35.496C40.1002 41.074 35.5605 45.6136 29.9826 45.6136C23.1731 45.6136 17.6354 40.0759 17.6354 33.2664C17.6354 24.9196 24.4288 18.1343 32.7676 18.1343C43.0301 18.1343 51.385 26.4892 51.385 36.7516C51.385 49.4127 41.0822 59.7235 28.4131 59.7235Z" fill="white"/>
<path d="M201.209 59.7235C188.548 59.7235 178.237 49.4208 178.237 36.7516C178.237 26.4892 186.592 18.1343 196.855 18.1343C205.201 18.1343 211.987 24.9277 211.987 33.2664C211.987 40.0759 206.449 45.6136 199.64 45.6136C194.062 45.6136 189.522 41.074 189.522 35.496C189.522 30.9 193.265 27.1572 197.861 27.1572C198.529 27.1572 199.068 27.6965 199.068 28.3646C199.068 29.0327 198.529 29.5719 197.861 29.5719C194.593 29.5719 191.937 32.2281 191.937 35.496C191.937 39.7459 195.39 43.1989 199.64 43.1989C205.121 43.1989 209.572 38.7398 209.572 33.2664C209.572 26.2557 203.865 20.549 196.855 20.549C187.92 20.549 180.652 27.8172 180.652 36.7516C180.652 48.0847 189.868 57.3088 201.209 57.3088C215.544 57.3088 227.199 45.6458 227.199 31.3186C227.199 30.6505 227.739 30.1112 228.407 30.1112C229.075 30.1112 229.614 30.6505 229.614 31.3186C229.614 46.9819 216.872 59.7235 201.209 59.7235Z" fill="white"/>
<path d="M180.596 97.4738H49.0189L47.8115 96.2664V64.5775C47.8115 63.9094 48.3508 63.3701 49.0189 63.3701C49.6869 63.3701 50.2262 63.9094 50.2262 64.5775V95.0591H179.389V64.5775C179.389 63.9094 179.928 63.3701 180.596 63.3701C181.264 63.3701 181.803 63.9094 181.803 64.5775V96.2664L180.596 97.4738Z" fill="white"/>
<path d="M172.66 65.4544C171.991 65.4544 171.452 64.9151 171.452 64.2471V1.81087C171.452 1.1428 171.991 0.603516 172.66 0.603516C173.328 0.603516 173.867 1.1428 173.867 1.81087V64.2471C173.867 64.9151 173.328 65.4544 172.66 65.4544Z" fill="white"/>
<path d="M149.519 65.4544C148.851 65.4544 148.312 64.9151 148.312 64.2471V1.81087C148.312 1.1428 148.851 0.603516 149.519 0.603516C150.187 0.603516 150.726 1.1428 150.726 1.81087V64.2471C150.726 64.9151 150.187 65.4544 149.519 65.4544Z" fill="white"/>
<path d="M126.378 65.4544C125.71 65.4544 125.171 64.9151 125.171 64.2471V1.81087C125.171 1.1428 125.71 0.603516 126.378 0.603516C127.046 0.603516 127.586 1.1428 127.586 1.81087V64.2471C127.586 64.9151 127.046 65.4544 126.378 65.4544Z" fill="white"/>
<path d="M103.237 65.4544C102.569 65.4544 102.029 64.9151 102.029 64.2471V1.81087C102.029 1.1428 102.569 0.603516 103.237 0.603516C103.905 0.603516 104.444 1.1428 104.444 1.81087V64.2471C104.444 64.9151 103.905 65.4544 103.237 65.4544Z" fill="white"/>
<path d="M80.1038 65.4544C79.4358 65.4544 78.8965 64.9151 78.8965 64.2471V1.81087C78.8965 1.1428 79.4358 0.603516 80.1038 0.603516C80.7719 0.603516 81.3112 1.1428 81.3112 1.81087V64.2471C81.3112 64.9151 80.7719 65.4544 80.1038 65.4544Z" fill="white"/>
<path d="M56.9632 65.4544C56.2951 65.4544 55.7559 64.9151 55.7559 64.2471V1.81087C55.7559 1.1428 56.2951 0.603516 56.9632 0.603516C57.6313 0.603516 58.1706 1.1428 58.1706 1.81087V64.2471C58.1706 64.9151 57.6313 65.4544 56.9632 65.4544Z" fill="white"/>
<path d="M196.726 65.7926H32.8963C14.7619 65.7926 0 51.0388 0 32.8963C0 14.7538 14.7538 0 32.8963 0H196.726C214.86 0 229.622 14.7538 229.622 32.8963C229.622 51.0388 214.868 65.7926 196.726 65.7926ZM32.8963 2.42276C16.09 2.42276 2.4147 16.098 2.4147 32.9044C2.4147 49.7107 16.09 63.386 32.8963 63.386H196.726C213.532 63.386 227.208 49.7107 227.208 32.9044C227.208 16.098 213.532 2.42276 196.726 2.42276H32.8963Z" fill="white"/>
<mask id="mask0_2005_168" style="mask-type:luminance" maskUnits="userSpaceOnUse" x="61" y="96" width="107" height="175">
<path d="M140.165 265.537C126.917 258.389 122.707 241.889 115.745 228.543C104.226 206.449 83.46 191.413 61.8242 178.406V96.8857H167.805V270.245C158.259 269.553 148.48 270.028 140.165 265.545V265.537Z" fill="white"/>
</mask>
<g mask="url(#mask0_2005_168)">
<path d="M144.746 288.171C140.48 288.171 137.011 284.702 137.011 280.436V114.715C137.011 110.449 140.48 106.979 144.746 106.979C149.012 106.979 152.481 110.449 152.481 114.715V280.436C152.481 284.702 149.012 288.171 144.746 288.171ZM144.746 109.402C141.816 109.402 139.425 111.785 139.425 114.723V280.444C139.425 283.374 141.808 285.764 144.746 285.764C147.684 285.764 150.066 283.382 150.066 280.444V114.723C150.066 111.793 147.684 109.402 144.746 109.402Z" fill="white"/>
<path d="M114.811 288.171C110.545 288.171 107.076 284.702 107.076 280.436V114.715C107.076 110.449 110.545 106.979 114.811 106.979C119.077 106.979 122.546 110.449 122.546 114.715V280.436C122.546 284.702 119.077 288.171 114.811 288.171ZM114.811 109.402C111.881 109.402 109.491 111.785 109.491 114.723V280.444C109.491 283.374 111.873 285.764 114.811 285.764C117.749 285.764 120.132 283.382 120.132 280.444V114.723C120.132 111.793 117.749 109.402 114.811 109.402Z" fill="white"/>
<path d="M84.8689 288.171C80.6029 288.171 77.1338 284.702 77.1338 280.436V114.715C77.1338 110.449 80.6029 106.979 84.8689 106.979C89.1349 106.979 92.604 110.449 92.604 114.715V280.436C92.604 284.702 89.1349 288.171 84.8689 288.171ZM84.8689 109.402C81.939 109.402 79.5485 111.785 79.5485 114.723V280.444C79.5485 283.374 81.931 285.764 84.8689 285.764C87.8068 285.764 90.1893 283.382 90.1893 280.444V114.723C90.1893 111.793 87.8068 109.402 84.8689 109.402Z" fill="white"/>
</g>
<path d="M167.709 271.445C165.914 271.316 164.071 271.227 162.3 271.139C154.565 270.761 146.573 270.366 139.594 266.599C129.155 260.965 124.164 249.793 119.327 238.983C117.846 235.675 116.324 232.254 114.674 229.099C102.947 206.618 81.0617 191.381 61.2047 179.436L60.6172 178.398V96.8778L61.8245 95.6704H167.806L169.013 96.8778V270.237L167.717 271.445H167.709ZM63.0238 177.722C83.0176 189.787 104.919 205.193 116.807 227.988C118.49 231.216 120.035 234.669 121.524 238.009C126.192 248.449 131.014 259.242 140.729 264.482C147.225 267.984 154.605 268.346 162.413 268.732C163.781 268.797 165.19 268.869 166.59 268.958V98.1012H63.0238V177.73V177.722Z" fill="white"/>
</svg>
