<svg width="209" height="341" viewBox="0 0 209 341" fill="none" xmlns="http://www.w3.org/2000/svg">
<path d="M81.3272 335.499C93.3708 329.002 97.1975 314.002 103.527 301.871C113.997 281.786 132.874 268.118 152.542 256.294V88.0728H56.2012V339.78C64.879 339.15 73.7689 339.582 81.3272 335.507V335.499Z" fill="black"/>
<path d="M178.831 1.10498H29.9109C14.0016 1.10498 1.10449 14.0004 1.10449 29.9078C1.10449 45.8151 14.0016 58.7105 29.9109 58.7105H178.831C194.74 58.7105 207.637 45.8151 207.637 29.9078C207.637 14.0004 194.74 1.10498 178.831 1.10498Z" fill="black"/>
<path d="M164.176 58.7104H44.5674V87.5169H164.176V58.7104Z" fill="black"/>
<path d="M182.914 54.2984C171.404 54.2984 162.031 44.9328 162.031 33.4161C162.031 24.0871 169.626 16.4922 178.955 16.4922C186.543 16.4922 192.711 22.6676 192.711 30.2479C192.711 36.4379 187.677 41.4719 181.487 41.4719C176.416 41.4719 172.289 37.3452 172.289 32.2746C172.289 28.0967 175.692 24.6944 179.87 24.6944C180.477 24.6944 180.967 25.1846 180.967 25.7919C180.967 26.3992 180.477 26.8894 179.87 26.8894C176.899 26.8894 174.485 29.304 174.485 32.2746C174.485 36.1379 177.631 39.2769 181.487 39.2769C186.47 39.2769 190.516 35.2233 190.516 30.2479C190.516 23.8749 185.328 18.6872 178.955 18.6872C170.833 18.6872 164.226 25.2944 164.226 33.4161C164.226 43.7182 172.611 52.1033 182.914 52.1033C195.945 52.1033 206.54 41.5012 206.54 28.4772C206.54 27.8699 207.03 27.3797 207.637 27.3797C208.244 27.3797 208.735 27.8699 208.735 28.4772C208.735 42.7158 197.152 54.2984 182.914 54.2984Z" fill="white"/>
<path d="M25.828 54.2984C11.5894 54.2984 0.00683594 42.7158 0.00683594 28.4772C0.00683594 27.8699 0.497065 27.3797 1.10436 27.3797C1.71166 27.3797 2.20189 27.8699 2.20189 28.4772C2.20189 41.5085 12.804 52.1033 25.828 52.1033C36.1301 52.1033 44.5152 43.7182 44.5152 33.4161C44.5152 25.2944 37.9081 18.6872 29.7864 18.6872C23.4134 18.6872 18.2258 23.8749 18.2258 30.2479C18.2258 35.2306 22.2793 39.2769 27.2548 39.2769C31.1181 39.2769 34.257 36.1379 34.257 32.2746C34.257 29.304 31.8425 26.8894 28.8718 26.8894C28.2645 26.8894 27.7743 26.3992 27.7743 25.7919C27.7743 25.1846 28.2645 24.6944 28.8718 24.6944C33.0497 24.6944 36.4521 28.0967 36.4521 32.2746C36.4521 37.3452 32.3253 41.4719 27.2548 41.4719C21.0647 41.4719 16.0308 36.4379 16.0308 30.2479C16.0308 22.6603 22.2062 16.4922 29.7864 16.4922C39.1154 16.4922 46.7103 24.0871 46.7103 33.4161C46.7103 44.9255 37.3447 54.2984 25.828 54.2984Z" fill="white"/>
<path d="M164.176 88.6143H44.5673L43.4697 87.5167V58.7103C43.4697 58.103 43.96 57.6128 44.5673 57.6128C45.1746 57.6128 45.6648 58.103 45.6648 58.7103V86.4192H163.078V58.7103C163.078 58.103 163.568 57.6128 164.176 57.6128C164.783 57.6128 165.273 58.103 165.273 58.7103V87.5167L164.176 88.6143Z" fill="white"/>
<path d="M51.7889 59.508C51.1816 59.508 50.6914 59.0178 50.6914 58.4105V1.65368C50.6914 1.04638 51.1816 0.556152 51.7889 0.556152C52.3962 0.556152 52.8865 1.04638 52.8865 1.65368V58.4105C52.8865 59.0178 52.3962 59.508 51.7889 59.508Z" fill="white"/>
<path d="M72.8173 59.508C72.21 59.508 71.7197 59.0178 71.7197 58.4105V1.65368C71.7197 1.04638 72.21 0.556152 72.8173 0.556152C73.4246 0.556152 73.9148 1.04638 73.9148 1.65368V58.4105C73.9148 59.0178 73.4246 59.508 72.8173 59.508Z" fill="white"/>
<path d="M93.8534 59.508C93.2461 59.508 92.7559 59.0178 92.7559 58.4105V1.65368C92.7559 1.04638 93.2461 0.556152 93.8534 0.556152C94.4607 0.556152 94.9509 1.04638 94.9509 1.65368V58.4105C94.9509 59.0178 94.4607 59.508 93.8534 59.508Z" fill="white"/>
<path d="M114.89 59.508C114.282 59.508 113.792 59.0178 113.792 58.4105V1.65368C113.792 1.04638 114.282 0.556152 114.89 0.556152C115.497 0.556152 115.987 1.04638 115.987 1.65368V58.4105C115.987 59.0178 115.497 59.508 114.89 59.508Z" fill="white"/>
<path d="M135.926 59.508C135.318 59.508 134.828 59.0178 134.828 58.4105V1.65368C134.828 1.04638 135.318 0.556152 135.926 0.556152C136.533 0.556152 137.023 1.04638 137.023 1.65368V58.4105C137.023 59.0178 136.533 59.508 135.926 59.508Z" fill="white"/>
<path d="M156.954 59.508C156.347 59.508 155.856 59.0178 155.856 58.4105V1.65368C155.856 1.04638 156.347 0.556152 156.954 0.556152C157.561 0.556152 158.051 1.04638 158.051 1.65368V58.4105C158.051 59.0178 157.561 59.508 156.954 59.508Z" fill="white"/>
<path d="M178.831 59.8079H29.904C13.4191 59.8079 0 46.3961 0 29.904C0 13.4191 13.4118 0 29.904 0H178.831C195.316 0 208.735 13.4118 208.735 29.904C208.735 46.3961 195.323 59.8079 178.831 59.8079ZM29.904 2.20236C14.6264 2.20236 2.19505 14.6337 2.19505 29.9113C2.19505 45.1888 14.6264 57.6202 29.904 57.6202H178.831C194.109 57.6202 206.54 45.1888 206.54 29.9113C206.54 14.6337 194.109 2.20236 178.831 2.20236H29.904Z" fill="white"/>
<mask id="mask0_2005_1306" style="mask-type:luminance" maskUnits="userSpaceOnUse" x="56" y="88" width="97" height="252">
<path d="M81.3272 335.499C93.3708 329.002 97.1975 314.002 103.527 301.871C113.997 281.786 132.874 268.118 152.542 256.294V88.0728H56.2012V339.78C64.879 339.15 73.7689 339.582 81.3272 335.507V335.499Z" fill="white"/>
</mask>
<g mask="url(#mask0_2005_1306)">
<path d="M77.1565 356.074C73.2786 356.074 70.125 352.921 70.125 349.043V104.287C70.125 100.409 73.2786 97.2554 77.1565 97.2554C81.0344 97.2554 84.188 100.409 84.188 104.287V349.043C84.188 352.921 81.0344 356.074 77.1565 356.074ZM77.1565 99.4504C74.4931 99.4504 72.3201 101.616 72.3201 104.287V349.043C72.3201 351.706 74.4858 353.879 77.1565 353.879C79.8271 353.879 81.9929 351.713 81.9929 349.043V104.287C81.9929 101.624 79.8271 99.4504 77.1565 99.4504Z" fill="white"/>
<path d="M104.367 356.074C100.489 356.074 97.3359 352.921 97.3359 349.043V104.287C97.3359 100.409 100.489 97.2554 104.367 97.2554C108.245 97.2554 111.399 100.409 111.399 104.287V349.043C111.399 352.921 108.245 356.074 104.367 356.074ZM104.367 99.4504C101.704 99.4504 99.531 101.616 99.531 104.287V349.043C99.531 351.706 101.697 353.879 104.367 353.879C107.038 353.879 109.204 351.713 109.204 349.043V104.287C109.204 101.624 107.038 99.4504 104.367 99.4504Z" fill="white"/>
<path d="M131.586 356.074C127.708 356.074 124.555 352.921 124.555 349.043V104.287C124.555 100.409 127.708 97.2554 131.586 97.2554C135.464 97.2554 138.618 100.409 138.618 104.287V349.043C138.618 352.921 135.464 356.074 131.586 356.074ZM131.586 99.4504C128.923 99.4504 126.75 101.616 126.75 104.287V349.043C126.75 351.706 128.916 353.879 131.586 353.879C134.257 353.879 136.423 351.713 136.423 349.043V104.287C136.423 101.624 134.257 99.4504 131.586 99.4504Z" fill="white"/>
</g>
<path d="M56.2816 340.87L55.1035 339.772V88.0653L56.201 86.9678H152.542L153.64 88.0653V256.287L153.105 257.231C135.047 268.089 115.153 281.94 104.5 302.376C103 305.251 101.609 308.361 100.27 311.361C95.8803 321.187 91.3365 331.343 81.8466 336.465C75.5029 339.889 68.23 340.24 61.1985 340.592C59.5814 340.672 57.9132 340.753 56.2816 340.87ZM57.2986 89.1702V338.601C58.5717 338.521 59.8448 338.462 61.0887 338.397C68.186 338.045 74.8956 337.716 80.8003 334.533C89.6317 329.77 94.0219 319.958 98.2583 310.468C99.6119 307.432 101.017 304.293 102.546 301.359C113.353 280.637 133.262 266.633 151.437 255.665V89.1628H57.2912L57.2986 89.1702Z" fill="white"/>
</svg>
