<svg width="288" height="340" viewBox="0 0 288 340" fill="none" xmlns="http://www.w3.org/2000/svg">
<path d="M51.2401 26.7709H0.105957V0H48.6054V1.72618H1.83213V11.6895L51.2401 11.8561V26.7709ZM1.83213 25.0447H49.514V13.5823L1.83213 13.4157V25.0447Z" fill="black"/>
<path d="M31.0561 58.478H23.9546V32.2371H25.6808V56.7367H30.617L76.8452 31.374H82.6143V57.6149H80.8881V33.1002H77.2995L31.0561 58.478Z" fill="black"/>
<path d="M140.366 31.7215H138.624V21.2282H96.0303V19.502H140.366V31.7215Z" fill="black"/>
<path d="M149.542 46.6069H96.0303V44.8807H147.816V32.7066H96.0303V30.9805H149.542V46.6069Z" fill="black"/>
<path d="M135.914 47.1514H134.188V73.1651H135.914V47.1514Z" fill="black"/>
<path d="M186.866 47.1514H185.14V73.1651H186.866V47.1514Z" fill="black"/>
<path d="M186.003 59.2969H135.596V61.023H186.003V59.2969Z" fill="black"/>
<path d="M231.641 36.7648H173.844V9.16113H231.641V10.8873H175.586V35.0386H231.641V36.7648Z" fill="black"/>
<path d="M211.729 22.0918H174.707V23.818H211.729V22.0918Z" fill="black"/>
<path d="M287.863 57.1911H230.081V30.9805H287.863V32.7066H231.716V55.4649H287.863V57.1911Z" fill="black"/>
<path d="M51.2401 160.685H0.105957V133.914H48.6054V135.64H1.83213V145.604L51.2401 145.77V160.685ZM1.83213 158.959H49.514V147.496L1.83213 147.33V158.944V158.959Z" fill="black"/>
<path d="M31.0561 192.393H23.9546V166.152H25.6808V190.652H30.617L76.8452 165.289H82.6143V191.515H80.8881V167.015H77.2995L31.0561 192.393Z" fill="black"/>
<path d="M140.366 165.637H138.624V155.144H96.0303V153.418H140.366V165.637Z" fill="black"/>
<path d="M149.542 180.522H96.0303V178.796H147.816V166.622H96.0303V164.896H149.542V180.522Z" fill="black"/>
<path d="M135.914 181.067H134.188V207.081H135.914V181.067Z" fill="black"/>
<path d="M186.866 181.067H185.14V207.081H186.866V181.067Z" fill="black"/>
<path d="M186.003 193.196H135.596V194.922H186.003V193.196Z" fill="black"/>
<path d="M231.641 170.68H173.844V143.076H231.641V144.802H175.586V168.954H231.641V170.68Z" fill="black"/>
<path d="M211.729 156.007H174.707V157.733H211.729V156.007Z" fill="black"/>
<path d="M287.863 191.106H230.081V164.896H287.863V166.622H231.716V189.38H287.863V191.106Z" fill="black"/>
<path d="M51.2401 293.464H0.105957V266.693H48.6054V268.42H1.83213V278.383L51.2401 278.549V293.464ZM1.83213 291.738H49.514V280.276L1.83213 280.109V291.723V291.738Z" fill="black"/>
<path d="M31.0561 325.157H23.9546V298.931H25.6808V323.431H30.617L76.8452 298.053H82.6143V324.294H80.8881V299.794H77.2995L31.0561 325.157Z" fill="black"/>
<path d="M140.366 298.417H138.624V287.923H96.0303V286.197H140.366V298.417Z" fill="black"/>
<path d="M149.542 313.3H96.0303V311.559H147.816V299.4H96.0303V297.674H149.542V313.3Z" fill="black"/>
<path d="M135.914 313.846H134.188V339.859H135.914V313.846Z" fill="black"/>
<path d="M186.866 313.846H185.14V339.859H186.866V313.846Z" fill="black"/>
<path d="M186.003 325.975H135.596V327.701H186.003V325.975Z" fill="black"/>
<path d="M231.641 303.459H173.844V275.855H231.641V277.582H175.586V301.733H231.641V303.459Z" fill="black"/>
<path d="M211.729 288.785H174.707V290.511H211.729V288.785Z" fill="black"/>
<path d="M287.863 323.884H230.081V297.674H287.863V299.4H231.716V322.158H287.863V323.884Z" fill="black"/>
<path d="M265.316 260.425H263.575V239.499H260.925L223.767 260.061H217.846V237.318H219.588V258.32H223.328L260.471 237.742H265.316V260.425Z" fill="black"/>
<path d="M253.672 218.739H251.916V197.798H249.266L212.123 218.376H206.187V195.633H207.943V216.635H211.668L248.811 196.057H253.672V218.739Z" fill="black"/>
<path d="M209.549 270.283H164.062V248.872H201.902V257.806H209.549V270.283ZM165.743 268.602H207.883V259.471H165.743V268.602ZM165.743 257.791H200.236V250.538H165.743V257.791Z" fill="black"/>
<path d="M1.66561 196.117H0V218.255H1.66561V196.117Z" fill="black"/>
<path d="M45.4859 196.117H43.8203V218.255H45.4859V196.117Z" fill="black"/>
<path d="M44.6535 206.354H1.31738V208.02H44.6535V206.354Z" fill="black"/>
<path d="M186.109 226.779H184.444V248.917H186.109V226.779Z" fill="black"/>
<path d="M229.914 226.779H228.249V248.917H229.914V226.779Z" fill="black"/>
<path d="M229.097 237.016H185.761V238.681H229.097V237.016Z" fill="black"/>
<path d="M93.0622 269.556H91.3814V249.448H69.8345V247.782H114.609V249.448H93.0622V269.556Z" fill="black"/>
<path d="M62.7783 258.532H17.1558V237.016H62.7783V238.681H18.8365V256.867H62.7783V258.532Z" fill="black"/>
<path d="M82.8412 238.44H81.1756V231.005H39.0357V238.44H37.3701V230.172V216.65H82.8412V230.172V238.44ZM39.0357 229.339H81.1756V218.331H39.0357V229.339Z" fill="black"/>
<path d="M159.096 261.909H157.43V254.475H115.29V261.909H113.625V253.642V240.12H159.111V253.642V261.909H159.096ZM115.29 252.809H157.43V241.801H115.29V252.809Z" fill="black"/>
<path d="M286.667 241.391H284.986V233.306L279.368 231.019H243.27V241.391H241.589V218.951H243.27V229.323H279.368L285.652 226.764V218.951H287.333V227.9L281.761 230.171L286.667 232.17V241.391Z" fill="black"/>
<path d="M265.316 125.466H263.575V104.54H260.925L223.767 125.103H217.846V102.359H219.588V123.361H223.328L260.471 102.783H265.316V125.466Z" fill="black"/>
<path d="M253.672 83.7804H251.916V62.8391H249.266L212.123 83.417H206.187V60.6738H207.943V81.6756H211.668L248.811 61.0978H253.672V83.7804Z" fill="black"/>
<path d="M209.549 135.323H164.062V113.912H201.902V122.846H209.549V135.323ZM165.743 133.642H207.883V124.511H165.743V133.642ZM165.743 122.831H200.236V115.578H165.743V122.831Z" fill="black"/>
<path d="M1.66561 61.1582H0V83.2956H1.66561V61.1582Z" fill="black"/>
<path d="M45.4859 61.1582H43.8203V83.2956H45.4859V61.1582Z" fill="black"/>
<path d="M44.6535 71.3936H1.31738V73.0592H44.6535V71.3936Z" fill="black"/>
<path d="M186.109 91.8203H184.444V113.958H186.109V91.8203Z" fill="black"/>
<path d="M229.914 91.8203H228.249V113.958H229.914V91.8203Z" fill="black"/>
<path d="M229.097 102.056H185.761V103.721H229.097V102.056Z" fill="black"/>
<path d="M93.0622 134.596H91.3814V114.488H69.8345V112.822H114.609V114.488H93.0622V134.596Z" fill="black"/>
<path d="M62.7783 123.572H17.1558V102.056H62.7783V103.721H18.8365V121.907H62.7783V123.572Z" fill="black"/>
<path d="M82.8412 103.48H81.1756V96.0449H39.0357V103.48H37.3701V95.2121V81.6904H82.8412V95.2121V103.48ZM39.0357 94.3793H81.1756V83.3712H39.0357V94.3793Z" fill="black"/>
<path d="M159.096 126.949H157.43V119.515H115.29V126.949H113.625V118.682V105.16H159.111V118.682V126.949H159.096ZM115.29 117.849H157.43V106.841H115.29V117.849Z" fill="black"/>
<path d="M286.667 106.431H284.986V98.3457L279.368 96.0593H243.27V106.431H241.589V83.9912H243.27V94.3634H279.368L285.652 91.8044V83.9912H287.333V92.9401L281.761 95.2113L286.667 97.2101V106.431Z" fill="black"/>
</svg>
