<svg width="167" height="93" viewBox="0 0 167 93" fill="none" xmlns="http://www.w3.org/2000/svg">
<path d="M9.54218 0C14.8193 0 19.0844 4.26507 19.0844 9.54218C19.0844 14.8193 14.8193 19.0844 9.54218 19.0844C4.26507 19.0844 0 14.8193 0 9.54218C0 4.26507 4.26507 0 9.54218 0Z" fill="white"/>
<path d="M9.54218 36.9578C14.8193 36.9578 19.0844 41.2228 19.0844 46.4999C19.0844 51.7771 14.8193 56.0421 9.54218 56.0421C4.26507 56.0421 0 51.7771 0 46.4999C0 41.2228 4.26507 36.9578 9.54218 36.9578Z" fill="white"/>
<path d="M9.54218 73.9155C14.8193 73.9155 19.0844 78.1806 19.0844 83.4577C19.0844 88.7348 14.8193 92.9999 9.54218 92.9999C4.26507 92.9999 0 88.7348 0 83.4577C0 78.1806 4.26507 73.9155 9.54218 73.9155Z" fill="white"/>
<path d="M46.5187 0C51.7778 0 56.0609 4.26507 56.0609 9.54218C56.0609 14.8193 51.7959 19.0844 46.5187 19.0844C41.2416 19.0844 36.9766 14.8193 36.9766 9.54218C36.9766 4.26507 41.2416 0 46.5187 0Z" fill="white"/>
<path d="M46.5187 36.9578C51.7778 36.9578 56.0609 41.2228 56.0609 46.4999C56.0609 51.7771 51.7959 56.0421 46.5187 56.0421C41.2416 56.0421 36.9766 51.7771 36.9766 46.4999C36.9766 41.2228 41.2416 36.9578 46.5187 36.9578Z" fill="white"/>
<path d="M46.5187 73.9155C51.7778 73.9155 56.0609 78.1806 56.0609 83.4577C56.0609 88.7348 51.7959 92.9999 46.5187 92.9999C41.2416 92.9999 36.9766 88.7348 36.9766 83.4577C36.9766 78.1806 41.2416 73.9155 46.5187 73.9155Z" fill="white"/>
<path d="M120.416 0C125.675 0 129.958 4.26507 129.958 9.54218C129.958 14.8193 125.693 19.0844 120.416 19.0844C115.139 19.0844 110.874 14.8193 110.874 9.54218C110.874 4.26507 115.139 0 120.416 0Z" fill="white"/>
<path d="M120.416 36.9578C125.675 36.9578 129.958 41.2228 129.958 46.4999C129.958 51.7771 125.693 56.0421 120.416 56.0421C115.139 56.0421 110.874 51.7771 110.874 46.4999C110.874 41.2228 115.139 36.9578 120.416 36.9578Z" fill="white"/>
<path d="M120.416 73.9155C125.675 73.9155 129.958 78.1806 129.958 83.4577C129.958 88.7348 125.693 92.9999 120.416 92.9999C115.139 92.9999 110.874 88.7348 110.874 83.4577C110.874 78.1806 115.139 73.9155 120.416 73.9155Z" fill="white"/>
<path d="M83.4582 0C88.7172 0 93.0004 4.26507 93.0004 9.54218C93.0004 14.8193 88.7353 19.0844 83.4582 19.0844C78.1811 19.0844 73.916 14.8193 73.916 9.54218C73.916 4.26507 78.1811 0 83.4582 0Z" fill="white"/>
<path d="M83.4582 36.9578C88.7353 36.9578 93.0004 41.2228 93.0004 46.4999C93.0004 51.7771 88.7353 56.0421 83.4582 56.0421C78.1811 56.0421 73.916 51.7771 73.916 46.4999C73.916 41.2228 78.1811 36.9578 83.4582 36.9578Z" fill="white"/>
<path d="M83.4582 73.9155C88.7353 73.9155 93.0004 78.1806 93.0004 83.4577C93.0004 88.7348 88.7353 92.9999 83.4582 92.9999C78.1811 92.9999 73.916 88.7348 73.916 83.4577C73.916 78.1806 78.1811 73.9155 83.4582 73.9155Z" fill="white"/>
<path d="M157.374 0C162.651 0 166.916 4.26507 166.916 9.54218C166.916 14.8193 162.651 19.0844 157.374 19.0844C152.097 19.0844 147.832 14.8193 147.832 9.54218C147.832 4.26507 152.097 0 157.374 0Z" fill="white"/>
<path d="M157.374 36.9578C162.651 36.9578 166.916 41.2228 166.916 46.4999C166.916 51.7771 162.651 56.0421 157.374 56.0421C152.097 56.0421 147.832 51.7771 147.832 46.4999C147.832 41.2228 152.097 36.9578 157.374 36.9578Z" fill="white"/>
<path d="M157.374 73.9155C162.651 73.9155 166.916 78.1806 166.916 83.4577C166.916 88.7348 162.651 92.9999 157.374 92.9999C152.097 92.9999 147.832 88.7348 147.832 83.4577C147.832 78.1806 152.097 73.9155 157.374 73.9155Z" fill="white"/>
</svg>
