<svg width="548" height="592" viewBox="0 0 548 592" fill="none" xmlns="http://www.w3.org/2000/svg">
<g opacity="0.88">
<mask id="mask0_2003_115" style="mask-type:luminance" maskUnits="userSpaceOnUse" x="192" y="0" width="356" height="592">
<path d="M547.073 0H192.947V591.105H547.073V0Z" fill="white"/>
</mask>
<g mask="url(#mask0_2003_115)">
<mask id="mask1_2003_115" style="mask-type:luminance" maskUnits="userSpaceOnUse" x="143" y="-32" width="405" height="752">
<path d="M547.073 -31.3175H143.604V719.966H547.073V-31.3175Z" fill="white"/>
</mask>
<g mask="url(#mask1_2003_115)">
<path d="M387.632 100.397H192.947V-0.0335693H378.972V3.52446H196.505V45.1804L387.632 45.8181V100.397ZM196.505 96.8391H384.074V49.3762L196.505 48.7384V96.8391Z" fill="white"/>
<path d="M306.57 198.109H281.093V98.1817H284.651V194.551H305.663L484.539 96.4027H504.847V196.33H501.289V99.9607H485.445L306.57 198.109Z" fill="white"/>
<path d="M564.561 241.645H561.003V199.519H394.682V195.961H564.561V241.645Z" fill="white"/>
<path d="M600.075 297.667H394.682V294.109H596.517V243.927H394.682V240.369H600.075V297.667Z" fill="white"/>
<path d="M258.234 295.888H254.676V396.486H258.234V295.888Z" fill="white"/>
<path d="M455.37 295.888H451.812V396.486H455.37V295.888Z" fill="white"/>
<path d="M453.59 344.391H258.569V347.949H453.59V344.391Z" fill="white"/>
<path d="M575.201 498.461H353.227V394.808H575.201V398.366H356.785V494.903H575.201V498.461Z" fill="white"/>
<path d="M498.234 444.856H355.006V448.414H498.234V444.856Z" fill="white"/>
<path d="M714.67 591.105H480.142V492.856H714.67V496.414H483.7V587.547H714.67V591.105Z" fill="white"/>
</g>
</g>
</g>
<path d="M50.0303 151.085C49.2003 151.085 48.5303 150.415 48.5303 149.585V52.5347C48.5303 51.7047 49.2003 51.0347 50.0303 51.0347C50.8603 51.0347 51.5303 51.7047 51.5303 52.5347V149.585C51.5303 150.415 50.8603 151.085 50.0303 151.085Z" fill="white"/>
<path d="M98.55 102.555H1.5C0.67 102.555 0 101.885 0 101.055C0 100.225 0.67 99.5547 1.5 99.5547H98.55C99.38 99.5547 100.05 100.225 100.05 101.055C100.05 101.885 99.38 102.555 98.55 102.555Z" fill="white"/>
<path d="M84.3403 136.865C83.9603 136.865 83.5703 136.715 83.2803 136.425L14.6603 67.8047C14.0703 67.2147 14.0703 66.2647 14.6603 65.6847C15.2503 65.0947 16.2003 65.0947 16.7803 65.6847L85.4003 134.305C85.9903 134.895 85.9903 135.845 85.4003 136.425C85.1103 136.715 84.7203 136.865 84.3403 136.865Z" fill="white"/>
<path d="M15.7203 136.865C15.3403 136.865 14.9503 136.715 14.6603 136.425C14.0703 135.835 14.0703 134.885 14.6603 134.305L83.2803 65.6847C83.8703 65.0947 84.8203 65.0947 85.4003 65.6847C85.9903 66.2747 85.9903 67.2247 85.4003 67.8047L16.7803 136.425C16.4903 136.715 16.1003 136.865 15.7203 136.865Z" fill="white"/>
</svg>
