<svg width="885" height="1045" viewBox="0 0 885 1045" fill="none" xmlns="http://www.w3.org/2000/svg">
<path d="M157.531 82.3039H0.325195V0H149.431V5.30693H5.63212V35.9382L157.531 36.4502V82.3039ZM5.63212 76.997H152.224V41.7572L5.63212 41.2451V76.997Z" fill="white"/>
<path d="M95.4784 179.784H73.6455V99.109H78.9524V174.43H94.1284L236.252 96.4556H253.988V177.13H248.681V101.762H237.648L95.4784 179.784Z" fill="white"/>
<path d="M431.537 97.5265H426.183V65.266H295.232V59.959H431.537V97.5265Z" fill="white"/>
<path d="M459.747 143.287H295.232V137.98H454.44V100.552H295.232V95.2451H459.747V143.287Z" fill="white"/>
<path d="M417.851 144.963H412.544V224.939H417.851V144.963Z" fill="white"/>
<path d="M574.498 144.963H569.191V224.939H574.498V144.963Z" fill="white"/>
<path d="M571.845 182.298H416.873V187.605H571.845V182.298Z" fill="white"/>
<path d="M712.152 113.028H534.463V28.1641H712.152V33.471H539.816V107.721H712.152V113.028Z" fill="white"/>
<path d="M650.937 67.9194H537.117V73.2264H650.937V67.9194Z" fill="white"/>
<path d="M885 175.827H707.357V95.2451H885V100.552H712.385V170.52H885V175.827Z" fill="white"/>
<path d="M157.531 494.009H0.325195V411.706H149.431V417.012H5.63212V447.644L157.531 448.156V494.009ZM5.63212 488.703H152.224V453.463L5.63212 452.951V488.656V488.703Z" fill="white"/>
<path d="M95.4784 591.49H73.6455V510.816H78.9524V586.137H94.1284L236.252 508.162H253.988V588.79H248.681V513.469H237.648L95.4784 591.49Z" fill="white"/>
<path d="M431.537 509.232H426.183V476.971H295.232V471.665H431.537V509.232Z" fill="white"/>
<path d="M459.747 554.993H295.232V549.686H454.44V512.259H295.232V506.952H459.747V554.993Z" fill="white"/>
<path d="M417.851 556.668H412.544V636.645H417.851V556.668Z" fill="white"/>
<path d="M574.498 556.668H569.191V636.645H574.498V556.668Z" fill="white"/>
<path d="M571.845 593.957H416.873V599.264H571.845V593.957Z" fill="white"/>
<path d="M712.152 524.734H534.463V439.87H712.152V445.177H539.816V519.428H712.152V524.734Z" fill="white"/>
<path d="M650.937 479.625H537.117V484.932H650.937V479.625Z" fill="white"/>
<path d="M885 587.533H707.357V506.952H885V512.259H712.385V582.226H885V587.533Z" fill="white"/>
<path d="M157.531 902.224H0.325195V819.92H149.431V825.227H5.63212V855.859L157.531 856.371V902.224ZM5.63212 896.917H152.224V861.678L5.63212 861.166V896.871V896.917Z" fill="white"/>
<path d="M95.4784 999.658H73.6455V919.03H78.9524V994.351H94.1284L236.252 916.33H253.988V997.005H248.681V921.684H237.648L95.4784 999.658Z" fill="white"/>
<path d="M431.537 917.447H426.183V885.186H295.232V879.879H431.537V917.447Z" fill="white"/>
<path d="M459.747 963.208H295.232V957.855H454.44V920.473H295.232V915.167H459.747V963.208Z" fill="white"/>
<path d="M417.851 964.884H412.544V1044.86H417.851V964.884Z" fill="white"/>
<path d="M574.498 964.884H569.191V1044.86H574.498V964.884Z" fill="white"/>
<path d="M571.845 1002.17H416.873V1007.48H571.845V1002.17Z" fill="white"/>
<path d="M712.152 932.949H534.463V848.085H712.152V853.392H539.816V927.642H712.152V932.949Z" fill="white"/>
<path d="M650.937 887.84H537.117V893.147H650.937V887.84Z" fill="white"/>
<path d="M885 995.748H707.357V915.167H885V920.473H712.385V990.441H885V995.748Z" fill="white"/>
<path d="M815.684 800.648H810.33V736.313H802.184L687.945 799.53H669.743V729.609H675.097V794.177H686.595L800.787 730.913H815.684V800.648Z" fill="white"/>
<path d="M779.886 672.49H774.485V608.109H766.339L652.147 671.373H633.898V601.452H639.298V666.019H650.75L764.942 602.755H779.886V672.49Z" fill="white"/>
<path d="M644.233 830.953H504.391V765.129H620.724V792.595H644.233V830.953ZM509.558 825.786H639.112V797.715H509.558V825.786ZM509.558 792.548H615.603V770.25H509.558V792.548Z" fill="white"/>
<path d="M5.12071 602.941H0V671H5.12071V602.941Z" fill="white"/>
<path d="M139.842 602.941H134.722V671H139.842V602.941Z" fill="white"/>
<path d="M137.282 634.411H4.0498V639.532H137.282V634.411Z" fill="white"/>
<path d="M572.171 697.209H567.05V765.268H572.171V697.209Z" fill="white"/>
<path d="M706.845 697.209H701.725V765.268H706.845V697.209Z" fill="white"/>
<path d="M704.331 728.679H571.1V733.799H704.331V728.679Z" fill="white"/>
<path d="M286.108 828.719H280.941V766.898H214.697V761.777H352.352V766.898H286.108V828.719Z" fill="white"/>
<path d="M193.004 794.829H52.7432V728.679H193.004V733.799H57.9104V789.708H193.004V794.829Z" fill="white"/>
<path d="M254.685 733.054H249.565V710.197H120.01V733.054H114.89V707.637V666.066H254.685V707.637V733.054ZM120.01 705.077H249.565V671.233H120.01V705.077Z" fill="white"/>
<path d="M489.122 805.21H484.001V782.353H354.447V805.21H349.326V779.793V738.222H489.168V779.793V805.21H489.122ZM354.447 777.233H484.001V743.389H354.447V777.233Z" fill="white"/>
<path d="M881.323 742.132H876.155V717.273L858.885 710.244H747.905V742.132H742.737V673.142H747.905V705.03H858.885L878.204 697.163V673.142H883.371V700.654L866.24 707.637L881.323 713.782V742.132Z" fill="white"/>
<path d="M815.684 385.73H810.33V321.395H802.184L687.945 384.613H669.743V314.691H675.097V379.259H686.595L800.787 315.995H815.684V385.73Z" fill="white"/>
<path d="M779.886 257.572H774.485V193.191H766.339L652.147 256.455H633.898V186.534H639.298V251.101H650.75L764.942 187.837H779.886V257.572Z" fill="white"/>
<path d="M644.233 416.035H504.391V350.21H620.724V377.676H644.233V416.035ZM509.558 410.868H639.112V382.797H509.558V410.868ZM509.558 377.63H615.603V355.331H509.558V377.63Z" fill="white"/>
<path d="M5.12071 188.023H0V256.082H5.12071V188.023Z" fill="white"/>
<path d="M139.842 188.023H134.722V256.082H139.842V188.023Z" fill="white"/>
<path d="M137.282 219.493H4.0498V224.613H137.282V219.493Z" fill="white"/>
<path d="M572.171 282.292H567.05V350.351H572.171V282.292Z" fill="white"/>
<path d="M706.845 282.292H701.725V350.351H706.845V282.292Z" fill="white"/>
<path d="M704.331 313.761H571.1V318.881H704.331V313.761Z" fill="white"/>
<path d="M286.108 413.801H280.941V351.98H214.697V346.859H352.352V351.98H286.108V413.801Z" fill="white"/>
<path d="M193.004 379.911H52.7432V313.761H193.004V318.881H57.9104V374.79H193.004V379.911Z" fill="white"/>
<path d="M254.685 318.136H249.565V295.279H120.01V318.136H114.89V292.719V251.148H254.685V292.719V318.136ZM120.01 290.159H249.565V256.315H120.01V290.159Z" fill="white"/>
<path d="M489.122 390.292H484.001V367.435H354.447V390.292H349.326V364.875V323.304H489.168V364.875V390.292H489.122ZM354.447 362.314H484.001V328.471H354.447V362.314Z" fill="white"/>
<path d="M881.323 327.214H876.155V302.355L858.885 295.326H747.905V327.214H742.737V258.224H747.905V290.112H858.885L878.204 282.244V258.224H883.371V285.736L866.24 292.719L881.323 298.864V327.214Z" fill="white"/>
</svg>
