<svg width="413" height="48" viewBox="0 0 413 48" fill="none" xmlns="http://www.w3.org/2000/svg">
<path d="M339.51 32.2996C339.51 32.0896 339.45 31.8796 339.34 31.6996C339.23 31.5196 339.06 31.3796 338.86 31.2896C338.66 31.2096 338.45 31.1896 338.24 31.2296C338.03 31.2696 337.84 31.3697 337.69 31.5197C337.54 31.6697 337.44 31.8596 337.4 32.0696C337.36 32.2796 337.38 32.4996 337.46 32.6896C337.54 32.8896 337.68 33.0596 337.86 33.1796C338.03 33.2896 338.24 33.3596 338.44 33.3596C338.57 33.3596 338.71 33.3496 338.83 33.2996C338.96 33.2596 339.08 33.1896 339.18 33.0996C339.28 33.0096 339.36 32.8997 339.42 32.7797C339.48 32.6597 339.51 32.5296 339.52 32.3896V32.2996H339.51ZM336.87 31.9296C336.87 31.2496 337.04 30.4696 337.66 30.0996C338.06 29.9196 338.47 29.7897 338.9 29.7097C339.09 29.6497 339.23 29.5496 339.25 29.3896H339.68C339.68 29.5496 339.64 29.7097 339.53 29.8397C339.43 29.9597 339.28 30.0496 339.12 30.0696C338.7 30.1496 338.29 30.2696 337.89 30.4296C337.51 30.6296 337.3 31.0696 337.26 31.6296H337.28C337.38 31.3796 337.55 31.1697 337.78 31.0197C338.01 30.8697 338.27 30.7996 338.54 30.8196C338.73 30.8196 338.92 30.8496 339.1 30.9196C339.28 30.9896 339.44 31.0996 339.57 31.2396C339.7 31.3796 339.8 31.5396 339.87 31.7196C339.93 31.8996 339.96 32.0897 339.95 32.2797C339.95 32.4797 339.92 32.6796 339.85 32.8696C339.77 33.0596 339.66 33.2296 339.52 33.3696C339.38 33.5096 339.2 33.6196 339.01 33.6896C338.82 33.7596 338.62 33.7897 338.42 33.7797C337.55 33.7997 336.87 33.2896 336.87 31.9396" fill="white"/>
<path d="M340.54 30.8701H340.98V33.0201L342.6 30.8701H343.04V33.6901H342.59V31.5401L341 33.7001H340.55L340.54 30.8701Z" fill="white"/>
<path d="M343.52 33.5193L343.71 33.1393C344.02 33.2993 344.36 33.3893 344.71 33.3793C345.17 33.3793 345.5 33.2593 345.5 32.8893C345.5 32.5193 345.23 32.4092 344.74 32.4092H344.2V32.0193H344.71C345.14 32.0193 345.41 31.9193 345.41 31.6093C345.41 31.2993 345.14 31.1993 344.72 31.1993C344.4 31.1993 344.07 31.2693 343.77 31.3893L343.61 30.9893C343.97 30.8493 344.35 30.7793 344.73 30.7793C345.44 30.7793 345.86 31.0493 345.86 31.5093C345.86 31.5993 345.84 31.6793 345.81 31.7593C345.78 31.8393 345.73 31.9192 345.67 31.9792C345.54 32.0992 345.37 32.1693 345.19 32.1693C345.67 32.2293 345.93 32.4793 345.93 32.9193C345.93 33.4393 345.55 33.7793 344.68 33.7793C344.27 33.7893 343.87 33.6993 343.51 33.5093" fill="white"/>
<path d="M349.05 30.8701V33.6901H348.61V32.4001H346.97V33.6901H346.53V30.8701H346.97V32.0001H348.61V30.8701H349.05Z" fill="white"/>
<path d="M350.1 31.9998H351.95C351.95 31.8898 351.92 31.7797 351.87 31.6697C351.82 31.5697 351.76 31.4698 351.67 31.3998C351.59 31.3198 351.49 31.2697 351.38 31.2297C351.27 31.1997 351.16 31.1798 351.04 31.1898C350.81 31.1698 350.58 31.2498 350.4 31.3998C350.22 31.5498 350.11 31.7698 350.1 31.9998ZM352.42 32.2698V32.3497H350.08C350.08 32.4797 350.1 32.6197 350.15 32.7397C350.2 32.8697 350.27 32.9798 350.37 33.0698C350.47 33.1598 350.58 33.2398 350.71 33.2798C350.83 33.3298 350.97 33.3498 351.1 33.3398C351.29 33.3398 351.48 33.2898 351.65 33.1998C351.82 33.0998 351.96 32.9697 352.06 32.7997L352.38 33.0898C352.24 33.2998 352.05 33.4797 351.83 33.5997C351.61 33.7197 351.36 33.7798 351.1 33.7698C350.9 33.7698 350.7 33.7497 350.52 33.6697C350.34 33.5997 350.17 33.4897 350.03 33.3497C349.89 33.2097 349.79 33.0397 349.72 32.8497C349.65 32.6597 349.62 32.4598 349.64 32.2698C349.64 31.3898 350.21 30.7598 351.07 30.7598C352 30.7798 352.43 31.4198 352.43 32.2598" fill="white"/>
<path d="M352.83 32.29C352.83 32.09 352.86 31.89 352.93 31.7C353 31.51 353.12 31.34 353.26 31.2C353.4 31.06 353.58 30.95 353.77 30.88C353.96 30.81 354.16 30.78 354.36 30.79C354.7 30.79 355.04 30.88 355.33 31.06L355.12 31.44C354.89 31.3 354.63 31.22 354.36 31.21C354.07 31.21 353.8 31.32 353.6 31.53C353.4 31.73 353.28 32.01 353.28 32.29C353.28 32.57 353.39 32.85 353.6 33.05C353.8 33.25 354.08 33.37 354.36 33.37C354.63 33.37 354.89 33.28 355.12 33.14L355.33 33.52C355.04 33.7 354.71 33.79 354.36 33.79C354.16 33.8 353.96 33.77 353.77 33.7C353.58 33.63 353.41 33.52 353.27 33.38C353.12 33.24 353.01 33.07 352.94 32.89C352.87 32.7 352.83 32.5 352.84 32.3L352.83 32.29Z" fill="white"/>
<path d="M339.89 24.5494C340.13 24.5494 340.37 24.4994 340.6 24.4094C340.82 24.3094 341.02 24.1694 341.19 23.9994C341.36 23.8194 341.49 23.6194 341.58 23.3894C341.66 23.1594 341.7 22.9194 341.69 22.6694C341.7 22.4294 341.66 22.1894 341.58 21.9594C341.49 21.7294 341.36 21.5294 341.19 21.3494C341.02 21.1794 340.82 21.0394 340.59 20.9494C340.37 20.8594 340.13 20.8094 339.88 20.8194C339.4 20.8094 338.94 20.9894 338.6 21.3194C338.26 21.6494 338.06 22.0994 338.05 22.5794V22.6794C338.05 22.9294 338.08 23.1694 338.17 23.3994C338.26 23.6294 338.4 23.8394 338.57 24.0094C338.74 24.1894 338.95 24.3294 339.18 24.4194C339.41 24.5094 339.65 24.5594 339.89 24.5594V24.5494ZM339.89 19.8694C341.51 19.8694 342.82 21.0594 342.82 22.6694C342.82 23.4194 342.51 24.1394 341.98 24.6594C341.45 25.1894 340.73 25.4794 339.98 25.4794C339.62 25.4994 339.27 25.4394 338.94 25.2994C338.6 25.1694 338.3 24.9594 338.06 24.6894H338V28.7694H336.93V23.1194C336.93 21.1294 338.07 19.8594 339.89 19.8594" fill="white"/>
<path d="M346.78 24.5401C347.15 24.5401 347.51 24.4401 347.81 24.2301C348.11 24.0201 348.35 23.7301 348.47 23.3901C348.56 23.1601 348.6 22.9201 348.59 22.6801C348.59 22.4401 348.56 22.1901 348.47 21.9701C348.38 21.7401 348.25 21.5301 348.08 21.3601C347.91 21.1901 347.71 21.0501 347.48 20.9501C347.25 20.8601 347.01 20.8101 346.77 20.8101C346.53 20.8101 346.28 20.8601 346.06 20.9501C345.84 21.0501 345.63 21.1901 345.46 21.3601C345.29 21.5401 345.16 21.7401 345.07 21.9701C344.98 22.2001 344.94 22.4401 344.95 22.6801C344.94 22.9201 344.98 23.1701 345.06 23.4001C345.15 23.6301 345.28 23.8401 345.45 24.0101C345.62 24.1901 345.82 24.3301 346.05 24.4201C346.28 24.5101 346.52 24.5601 346.76 24.5601L346.78 24.5401ZM343.82 22.6801C343.82 21.0601 345.17 19.8701 346.78 19.8701C348.39 19.8701 349.74 21.0601 349.74 22.6801C349.74 24.3001 348.39 25.4901 346.78 25.4901C345.17 25.4901 343.82 24.3001 343.82 22.6801Z" fill="white"/>
<path d="M353.7 25.4794C352 25.4794 350.72 24.3094 350.72 22.6694C350.72 21.0294 351.98 19.8594 353.65 19.8594C354.95 19.8594 356.16 20.5594 356.46 21.9094H355.36C355.23 21.5794 355 21.2894 354.7 21.0994C354.4 20.9094 354.05 20.8094 353.69 20.8394C353.44 20.8394 353.2 20.8794 352.97 20.9694C352.74 21.0594 352.54 21.1994 352.36 21.3794C352.19 21.5594 352.06 21.7694 351.97 21.9994C351.88 22.2294 351.85 22.4794 351.86 22.7294C351.85 22.9694 351.89 23.2194 351.98 23.4494C352.07 23.6794 352.21 23.8894 352.38 24.0594C352.56 24.2294 352.77 24.3494 353 24.4394C353.23 24.5294 353.47 24.5694 353.72 24.5594C354.08 24.5794 354.44 24.4894 354.75 24.2794C355.05 24.0794 355.28 23.7794 355.4 23.4394H356.51C356.35 24.0494 355.98 24.5894 355.47 24.9594C354.96 25.3294 354.34 25.5194 353.71 25.4994" fill="white"/>
<path d="M360.5 24.7195L358.73 20.9995H358.7V25.3695H357.66V19.9795H359.32L361.07 23.6695H361.11L362.86 19.9895H364.52V25.3695H363.48V20.9995H363.44L361.69 24.7095L360.5 24.7195Z" fill="white"/>
<path d="M368.63 24.5401C368.87 24.5401 369.12 24.5001 369.34 24.4101C369.56 24.3201 369.77 24.1801 369.94 24.0001C370.11 23.8301 370.24 23.6201 370.33 23.3901C370.42 23.1601 370.46 22.9201 370.44 22.6801C370.45 22.4401 370.41 22.1901 370.32 21.9701C370.23 21.7401 370.1 21.5301 369.93 21.3601C369.76 21.1801 369.56 21.0501 369.33 20.9501C369.11 20.8601 368.86 20.8101 368.62 20.8101C368.38 20.8101 368.13 20.8601 367.91 20.9501C367.69 21.0501 367.48 21.1901 367.31 21.3601C367.14 21.5401 367.01 21.7401 366.92 21.9701C366.84 22.2001 366.8 22.4401 366.8 22.6801C366.79 22.9201 366.83 23.1701 366.91 23.4001C366.99 23.6301 367.12 23.8401 367.29 24.0201C367.46 24.2001 367.66 24.3401 367.89 24.4401C368.12 24.5301 368.36 24.5801 368.6 24.5801V24.5501L368.63 24.5401ZM365.67 22.6801C365.67 21.0601 367.02 19.8701 368.63 19.8701C370.24 19.8701 371.59 21.0701 371.59 22.6801C371.59 24.2901 370.24 25.4901 368.63 25.4901C367.02 25.4901 365.67 24.3001 365.67 22.6801Z" fill="white"/>
<path d="M372.11 25.4099V24.2999H372.13C372.25 24.2999 372.36 24.2799 372.47 24.2299C372.58 24.1799 372.68 24.12 372.76 24.03C372.96 23.8 373.05 23.3999 373.17 22.8199L373.33 21.96C373.51 20.97 373.87 19.96 375.35 19.96H377.46V25.3699H376.38V20.9799H375.54C374.7 20.9799 374.52 21.2099 374.32 22.3599L374.16 23.1599C374.04 23.8999 373.85 24.54 373.47 24.95C373.31 25.11 373.11 25.24 372.9 25.33C372.69 25.41 372.45 25.4499 372.23 25.4399H372.12L372.11 25.4099Z" fill="white"/>
<path d="M381.6 24.5401C381.84 24.5401 382.08 24.5001 382.31 24.4101C382.53 24.3101 382.73 24.1801 382.89 24.0001C383.06 23.8301 383.19 23.6201 383.28 23.3901C383.37 23.1601 383.41 22.9201 383.39 22.6801C383.4 22.4401 383.36 22.1901 383.27 21.9701C383.19 21.7401 383.05 21.5301 382.88 21.3601C382.63 21.1001 382.3 20.9201 381.94 20.8401C381.58 20.7701 381.21 20.8001 380.87 20.9501C380.65 21.0501 380.45 21.1901 380.28 21.3601C380.11 21.5401 379.98 21.7401 379.9 21.9701C379.81 22.2001 379.78 22.4401 379.78 22.6801C379.77 22.9201 379.8 23.1701 379.89 23.4001C379.97 23.6301 380.11 23.8401 380.28 24.0201C380.44 24.2001 380.64 24.3401 380.86 24.4301C381.09 24.5201 381.33 24.5701 381.57 24.5701V24.5501L381.6 24.5401ZM378.64 22.6801C378.64 21.0601 379.99 19.8701 381.6 19.8701C383.21 19.8701 384.55 21.0601 384.55 22.6801C384.55 23.0601 384.46 23.4302 384.31 23.7802C384.16 24.1302 383.94 24.4401 383.66 24.7001C383.39 24.9601 383.06 25.1701 382.71 25.3001C382.36 25.4401 381.98 25.5001 381.6 25.4901C380 25.4901 378.64 24.3001 378.64 22.6801Z" fill="white"/>
<path d="M389.29 24.3902V20.9402H388.28C387.63 20.9402 387.4 21.4602 387.27 22.0102L387.04 23.0502C386.96 23.5102 386.78 23.9402 386.5 24.3102V24.3902H389.28H389.29ZM385.79 26.6802H384.75V24.3702H385.45C385.77 24.0302 385.93 23.5102 386.07 22.8802L386.3 21.8802C386.52 20.9202 386.93 19.9502 388.27 19.9502H390.36V24.3702H391.14V26.6802H390.1V25.3702H385.79V26.6802Z" fill="white"/>
<path d="M395.46 18.0098H396.57V19.1298H395.46V18.0098ZM396.59 22.1597C396.52 21.7597 396.3 21.3998 395.98 21.1498C395.66 20.8998 395.26 20.7797 394.85 20.7997C394.44 20.7797 394.04 20.9097 393.71 21.1597C393.38 21.4097 393.15 21.7597 393.06 22.1597H396.58H396.59ZM393.04 18.0098H394.15V19.1298H393.04V18.0098ZM394.9 25.4897C393.18 25.4897 391.94 24.3197 391.94 22.6797C391.94 21.0397 393.2 19.8698 394.87 19.8698C396.16 19.8698 397.72 20.7198 397.72 22.7698V22.9998H393.02C393.13 23.8998 393.83 24.5497 394.91 24.5497C395.54 24.5497 396.3 24.3198 396.5 23.7698H397.59C397.27 24.9498 396.02 25.4897 394.91 25.4897" fill="white"/>
<path d="M402.79 19.9895V22.1195H403.69L404.97 19.9895H406.14L404.57 22.5595L406.28 25.3795H405.07L403.73 23.1095H402.81V25.3795H401.79V23.0995H400.87L399.51 25.3695H398.3L400.01 22.5495L398.43 19.9795H399.6L400.87 22.1295H401.77V19.9895H402.79Z" fill="white"/>
<path d="M409.64 24.5402C409.83 24.5502 410.03 24.5203 410.21 24.4503C410.39 24.3803 410.56 24.2803 410.69 24.1403C410.83 24.0103 410.94 23.8402 411.01 23.6602C411.08 23.4802 411.12 23.2903 411.12 23.0903C411.12 22.8003 411.05 22.5103 410.89 22.2703C410.73 22.0203 410.51 21.8303 410.24 21.7103C409.97 21.5903 409.68 21.5602 409.39 21.6102C409.2 21.6202 409.01 21.6803 408.84 21.7603C408.67 21.8503 408.51 21.9702 408.39 22.1102C408.26 22.2602 408.17 22.4302 408.11 22.6102C408.05 22.7902 408.03 22.9902 408.04 23.1802C408.05 23.3702 408.11 23.5602 408.19 23.7302C408.28 23.9002 408.4 24.0602 408.54 24.1802C408.69 24.3102 408.86 24.4003 409.04 24.4603C409.22 24.5203 409.42 24.5403 409.61 24.5303H409.64V24.5402ZM407.04 22.9503L407.02 19.9902H408.11V21.5103H408.14C408.35 21.2503 408.61 21.0403 408.91 20.9003C409.21 20.7603 409.54 20.6903 409.87 20.7003C410.18 20.7003 410.5 20.7502 410.79 20.8602C411.08 20.9802 411.35 21.1502 411.57 21.3702C411.79 21.5902 411.97 21.8503 412.09 22.1403C412.21 22.4303 412.27 22.7402 412.27 23.0602C412.27 24.4402 411.17 25.5002 409.67 25.5002C409.33 25.5102 408.99 25.4603 408.66 25.3403C408.34 25.2203 408.05 25.0302 407.8 24.7902C407.55 24.5502 407.36 24.2703 407.22 23.9503C407.09 23.6303 407.02 23.2903 407.02 22.9503" fill="white"/>
<path d="M318.25 34.2196L307.59 27.8796V33.6996H304.71V22.8096L317.94 30.6896L331.53 19.1396V33.6996H328.65V25.3696L318.25 34.2196Z" fill="#FFCD00"/>
<path d="M264.16 28.8198H263.35V25.9798C263.35 25.9098 263.36 25.8298 263.39 25.7698C263.32 25.7998 263.24 25.8098 263.16 25.7998H261.8C261.72 25.7998 261.64 25.7998 261.57 25.7698C261.6 25.8398 261.61 25.9098 261.61 25.9798V28.8198H260.81V25.0498H264.15V28.8198H264.16Z" fill="white"/>
<path d="M265.9 26.9299C265.89 27.0899 265.91 27.2599 265.97 27.4099C266.02 27.5699 266.11 27.7099 266.23 27.8299C266.34 27.9499 266.48 28.0399 266.64 28.1099C266.8 28.1799 266.96 28.1999 267.12 28.1999C267.84 28.1999 268.25 27.7299 268.25 26.9399C268.25 26.1499 267.82 25.6799 267.12 25.6799C266.96 25.6799 266.8 25.7099 266.64 25.7699C266.48 25.8299 266.35 25.9299 266.24 26.0399C266.12 26.1599 266.04 26.2999 265.98 26.4599C265.92 26.6099 265.9 26.7799 265.91 26.9399L265.9 26.9299ZM269.1 26.9299C269.1 28.0999 268.34 28.9299 267.28 28.9299C266.99 28.9399 266.71 28.8699 266.46 28.7099C266.21 28.5599 266.02 28.3399 265.9 28.0699H265.86C265.92 28.3299 265.94 28.5899 265.94 28.8599V30.4199H265.13V25.0399H265.91C265.91 25.2799 265.91 25.5199 265.86 25.7599H265.89C266.01 25.4999 266.21 25.2799 266.46 25.1299C266.71 24.9799 266.99 24.9099 267.28 24.9199C268.34 24.9199 269.1 25.7499 269.1 26.9199" fill="white"/>
<path d="M270.44 26.93C270.44 27.09 270.46 27.25 270.51 27.4C270.57 27.55 270.66 27.69 270.77 27.8C270.89 27.92 271.02 28 271.17 28.06C271.32 28.12 271.49 28.14 271.65 28.13C271.81 28.14 271.97 28.12 272.12 28.06C272.27 28 272.41 27.91 272.52 27.8C272.63 27.69 272.72 27.55 272.78 27.4C272.84 27.25 272.86 27.09 272.85 26.93C272.86 26.77 272.84 26.6 272.78 26.45C272.69 26.22 272.53 26.02 272.33 25.88C272.13 25.74 271.89 25.6699 271.64 25.6699C271.39 25.6699 271.15 25.74 270.95 25.88C270.75 26.02 270.59 26.22 270.5 26.45C270.44 26.6 270.41 26.76 270.43 26.93M273.7 26.93C273.7 27.2 273.65 27.47 273.55 27.71C273.45 27.96 273.29 28.18 273.1 28.37C272.91 28.56 272.68 28.71 272.43 28.81C272.18 28.91 271.91 28.95 271.64 28.94C271.37 28.94 271.1 28.9 270.85 28.81C270.6 28.72 270.37 28.57 270.18 28.38C269.99 28.19 269.83 27.9699 269.73 27.7199C269.62 27.4699 269.57 27.21 269.57 26.94C269.57 26.54 269.69 26.14 269.93 25.81C270.16 25.48 270.48 25.22 270.86 25.07C271.11 24.97 271.38 24.93 271.65 24.94C271.92 24.93 272.19 24.97 272.44 25.07C272.69 25.17 272.92 25.31 273.11 25.5C273.3 25.69 273.45 25.9099 273.55 26.1599C273.65 26.4099 273.7 26.68 273.69 26.94H273.7V26.93Z" fill="white"/>
<path d="M275.03 26.5502V26.5702C275.18 26.5002 275.35 26.4702 275.52 26.4802H276.45C276.84 26.4802 276.97 26.5002 277.05 26.5502V26.5302C277.05 26.4102 277.02 26.2902 276.98 26.1802C276.93 26.0702 276.85 25.9702 276.76 25.8902C276.67 25.8102 276.56 25.7502 276.44 25.7102C276.32 25.6702 276.2 25.6602 276.07 25.6702C275.81 25.6502 275.56 25.7402 275.36 25.9002C275.16 26.0702 275.04 26.3002 275.01 26.5602H275.02L275.03 26.5502ZM277.92 26.9302V27.0902H275.5C275.33 27.1102 275.16 27.0902 275.01 27.0302H274.99L275.02 27.1402C275.02 27.2902 275.06 27.4302 275.12 27.5602C275.18 27.6902 275.27 27.8102 275.38 27.9102C275.49 28.0102 275.62 28.0802 275.76 28.1302C275.9 28.1802 276.04 28.2002 276.19 28.1902C276.41 28.1902 276.63 28.1402 276.82 28.0402C277.02 27.9402 277.19 27.8002 277.33 27.6302L277.82 28.1702C277.63 28.4202 277.38 28.6202 277.09 28.7502C276.81 28.8902 276.5 28.9502 276.18 28.9502C275.92 28.9602 275.66 28.9202 275.41 28.8302C275.16 28.7402 274.94 28.5902 274.75 28.4102C274.57 28.2202 274.42 28.0002 274.33 27.7502C274.24 27.5002 274.2 27.2402 274.22 26.9802C274.22 25.7602 274.98 24.9502 276.13 24.9502C277.28 24.9502 277.92 25.7002 277.92 26.9402" fill="white"/>
<path d="M280.75 28.3393L280.56 27.6693C280.46 27.2893 280.33 27.1592 280.02 27.1592H279.67C279.58 27.1592 279.5 27.1593 279.41 27.1393C279.44 27.2493 279.46 27.3692 279.45 27.4792V28.8093H278.64V25.0392H279.45V26.2093C279.45 26.3193 279.45 26.4292 279.41 26.5392C279.5 26.5392 279.58 26.5392 279.67 26.5392H280.02C280.34 26.5392 280.42 26.4693 280.56 26.0793L280.83 25.4092C280.94 25.1392 281.16 25.0293 281.56 25.0293H281.96V25.7493H281.82C281.73 25.7393 281.63 25.7493 281.55 25.8093C281.47 25.8593 281.42 25.9392 281.4 26.0392L281.26 26.3693C281.15 26.6893 280.9 26.8293 280.46 26.8293V26.8593C280.93 26.8593 281.16 27.0092 281.26 27.3492L281.42 27.8893C281.48 28.0893 281.54 28.1193 281.8 28.1193H282.01V28.8093H281.54C281.11 28.8293 280.87 28.6793 280.77 28.3393" fill="white"/>
<path d="M285.89 25.0498V25.7898H284.72C284.64 25.7898 284.56 25.7898 284.49 25.7598C284.52 25.8298 284.53 25.8998 284.53 25.9698V28.8198H283.7V25.9798C283.7 25.9098 283.7 25.8398 283.74 25.7698C283.67 25.7998 283.59 25.8098 283.51 25.7998H282.34V25.0598H285.88L285.89 25.0498Z" fill="white"/>
<path d="M289.51 26.9297C289.5 27.0997 289.52 27.2597 289.58 27.4197C289.64 27.5797 289.72 27.7197 289.84 27.8397C289.95 27.9597 290.09 28.0597 290.24 28.1297C290.39 28.1997 290.56 28.2297 290.72 28.2297C290.88 28.2297 291.05 28.1997 291.2 28.1297C291.35 28.0597 291.49 27.9697 291.6 27.8497C291.71 27.7297 291.8 27.5797 291.85 27.4297C291.91 27.2697 291.93 27.1097 291.92 26.9397C291.92 26.6297 291.79 26.3397 291.58 26.1197C291.37 25.8997 291.08 25.7697 290.77 25.7497C290.47 25.7297 290.16 25.8297 289.93 26.0297C289.69 26.2197 289.54 26.4997 289.5 26.7997C289.5 26.8397 289.5 26.8797 289.5 26.9297H289.51ZM292.78 26.9297C292.78 27.3397 292.68 27.7397 292.46 28.0797C292.24 28.4197 291.92 28.6897 291.55 28.8597C291.18 29.0197 290.76 29.0697 290.36 28.9997C289.96 28.9297 289.59 28.7397 289.3 28.4497C289.01 28.1697 288.81 27.7997 288.73 27.3997C288.65 26.9997 288.69 26.5897 288.84 26.2097C288.99 25.8297 289.26 25.5097 289.59 25.2797C289.93 25.0497 290.33 24.9297 290.73 24.9297C291 24.9297 291.26 24.9697 291.51 25.0597C291.76 25.1597 292 25.2997 292.19 25.4897C292.38 25.6797 292.53 25.8997 292.63 26.1497C292.73 26.3997 292.78 26.6597 292.77 26.9297" fill="white"/>
<path d="M296.59 25.0498V25.7898H295.42C295.34 25.7898 295.26 25.7898 295.19 25.7598C295.22 25.8298 295.23 25.8998 295.23 25.9698V28.8198H294.42V25.9798C294.42 25.9098 294.43 25.8398 294.46 25.7698C294.39 25.7998 294.31 25.8098 294.23 25.7998H293.04V25.0598H296.59V25.0498Z" fill="white"/>
<path d="M138.09 34.0398H120.39V23.2998H135.35V27.7398H138.09V34.0398ZM122.39 31.8698H136.08V29.5998H122.39V31.8698ZM122.39 27.7398H133.34V25.4098H122.39V27.7398Z" fill="#FFCD00"/>
<path d="M166.71 34.0398H163.78V23.2998H165.79V31.6698H166.19L178.95 23.2998H181.51V34.0398H179.5V25.6798H179.47L166.71 34.0398Z" fill="#FFCD00"/>
<path d="M208.01 34.0398H205.09V23.2998H207.09V31.6698H207.49L220.25 23.2998H222.81V34.0398H220.8V25.6798H220.77L208.01 34.0398Z" fill="#FFCD00"/>
<path d="M16.6596 23.2998H14.3696V34.0398H16.6596V23.2998Z" fill="#FFCD00"/>
<path d="M34.6196 23.2998H32.3296V34.0398H34.6196V23.2998Z" fill="#FFCD00"/>
<path d="M33.4699 27.3105H15.71V29.6906H33.4699V27.3105Z" fill="#FFCD00"/>
<path d="M143.09 23.2998H140.8V34.0398H143.09V23.2998Z" fill="#FFCD00"/>
<path d="M161.05 23.2998H158.76V34.0398H161.05V23.2998Z" fill="#FFCD00"/>
<path d="M159.9 27.3105H142.14V29.6906H159.9V27.3105Z" fill="#FFCD00"/>
<path d="M88.7897 34.0398H86.6497V25.3498H79.1597V23.2998H96.2697V25.3498H88.7897V34.0398Z" fill="#FFCD00"/>
<path d="M76.5396 34.0398H59.5596V23.2998H76.5396V25.2998H61.5596V31.8898H76.5396V34.0398Z" fill="#FFCD00"/>
<path d="M117.85 34.0398H115.71V31.0198H101.11V34.0398H98.9697V30.2998V23.2998H117.85V30.2998V34.0398ZM101.11 29.0298H115.71V25.4098H101.11V29.0298Z" fill="#FFCD00"/>
<path d="M56.6798 34.0398H54.5398V31.0198H39.9398V34.0398H37.7998V30.2998V23.2998H56.6798V30.2998V34.0398ZM39.9398 29.0298H54.5398V25.4098H39.9398V29.0298Z" fill="#FFCD00"/>
<path d="M198.14 28.4198L202.19 25.3498L201.08 23.2998L194.93 27.9698H186.55V23.2998H184.49V34.0398H186.55V29.9798H195.66L200.37 30.6798V34.0398H202.42V29.2598L198.14 28.4198Z" fill="#FFCD00"/>
<path d="M35.2596 12.14H14.3696V0H33.3796V2.43002H16.7996V4.53L35.2596 4.60001V12.14ZM16.7996 9.71002H32.8196V6.73001L16.7996 6.67001V9.71002Z" fill="#FFCD00"/>
<path d="M79.1198 5.01001V0H62.0698V2.33002H76.6298V5.01001H62.0698V7.32001H79.9698V9.65002H62.0698V12.14H82.4598V5.01001H79.1198Z" fill="#FFCD00"/>
<path d="M59.3698 12.14H56.9598V2.41H56.9398L41.3597 12.14H37.7798V0H40.1898V9.73001H40.6697L56.2397 0H59.3698V12.14Z" fill="#FFCD00"/>
<path d="M102.82 0V4.82001H87.5798V0H85.0898V12.14H87.5798V7.31H102.82V12.14H105.31V7.31V4.82001V0H102.82Z" fill="#FFCD00"/>
<path d="M128.48 2.27002V0H107.93V4.87003V7.26001V12.14H128.48V9.74002H110.32V7.26001H122.13V4.87003H110.32V2.27002H128.48Z" fill="#FFCD00"/>
<path d="M151.7 12.14H131.1V0H151.7V2.21002H133.44V9.80002H151.7V12.14Z" fill="#FFCD00"/>
<path d="M156.11 5.80957V6.32959H236.65V46.9296H0.52002V6.32959H9.22998V5.80957H0V47.4496H237.17V5.80957H156.11Z" fill="url(#paint0_linear_2001_20)"/>
<path d="M156.11 5.80957V6.32959H236.65V46.9296H0.52002V6.32959H9.22998V5.80957H0V47.4496H237.17V5.80957H156.11Z" stroke="#FFCD00"/>
<defs>
<linearGradient id="paint0_linear_2001_20" x1="158.5" y1="141" x2="-3.06763e-06" y2="18" gradientUnits="userSpaceOnUse">
<stop stop-color="#FFCD00"/>
<stop offset="1" stop-opacity="0.1"/>
</linearGradient>
</defs>
</svg>
