<svg width="238" height="48" viewBox="0 0 238 48" fill="none" xmlns="http://www.w3.org/2000/svg">
<path d="M138.09 34.04H120.39V23.3H135.35V27.7401H138.09V34.04ZM122.39 31.8701H136.08V29.6H122.39V31.8701ZM122.39 27.7401H133.34V25.41H122.39V27.7401Z" fill="black"/>
<path d="M166.71 34.04H163.78V23.3H165.79V31.67H166.19L178.95 23.3H181.51V34.04H179.5V25.6801H179.47L166.71 34.04Z" fill="black"/>
<path d="M208.01 34.04H205.09V23.3H207.09V31.67H207.49L220.25 23.3H222.81V34.04H220.8V25.6801H220.77L208.01 34.04Z" fill="black"/>
<path d="M16.6596 23.3H14.3696V34.04H16.6596V23.3Z" fill="black"/>
<path d="M34.6196 23.3H32.3296V34.04H34.6196V23.3Z" fill="black"/>
<path d="M33.4699 27.3101H15.71V29.6901H33.4699V27.3101Z" fill="black"/>
<path d="M143.09 23.3H140.8V34.04H143.09V23.3Z" fill="black"/>
<path d="M161.05 23.3H158.76V34.04H161.05V23.3Z" fill="black"/>
<path d="M159.9 27.3101H142.14V29.6901H159.9V27.3101Z" fill="black"/>
<path d="M88.7897 34.04H86.6497V25.35H79.1597V23.3H96.2697V25.35H88.7897V34.04Z" fill="black"/>
<path d="M76.5396 34.04H59.5596V23.3H76.5396V25.3H61.5596V31.89H76.5396V34.04Z" fill="black"/>
<path d="M117.85 34.04H115.71V31.0201H101.11V34.04H98.9697V30.3V23.3H117.85V30.3V34.04ZM101.11 29.03H115.71V25.41H101.11V29.03Z" fill="black"/>
<path d="M56.6798 34.04H54.5398V31.0201H39.9398V34.04H37.7998V30.3V23.3H56.6798V30.3V34.04ZM39.9398 29.03H54.5398V25.41H39.9398V29.03Z" fill="black"/>
<path d="M198.14 28.42L202.19 25.35L201.08 23.3L194.93 27.97H186.55V23.3H184.49V34.04H186.55V29.98H195.66L200.37 30.6801V34.04H202.42V29.26L198.14 28.42Z" fill="black"/>
<path d="M35.2596 12.14H14.3696V0H33.3796V2.43002H16.7996V4.53L35.2596 4.60001V12.14ZM16.7996 9.71002H32.8196V6.73001L16.7996 6.67001V9.71002Z" fill="black"/>
<path d="M79.1198 5.01001V0H62.0698V2.33002H76.6298V5.01001H62.0698V7.32001H79.9698V9.65002H62.0698V12.14H82.4598V5.01001H79.1198Z" fill="black"/>
<path d="M59.3698 12.14H56.9598V2.41H56.9398L41.3597 12.14H37.7798V0H40.1898V9.73001H40.6697L56.2397 0H59.3698V12.14Z" fill="black"/>
<path d="M102.82 0V4.82001H87.5798V0H85.0898V12.14H87.5798V7.31H102.82V12.14H105.31V7.31V4.82001V0H102.82Z" fill="black"/>
<path d="M128.48 2.27002V0H107.93V4.87003V7.26001V12.14H128.48V9.74002H110.32V7.26001H122.13V4.87003H110.32V2.27002H128.48Z" fill="black"/>
<path d="M151.7 12.14H131.1V0H151.7V2.21002H133.44V9.80002H151.7V12.14Z" fill="black"/>
<path d="M156.11 5.80994V6.32996H236.65V46.93H0.52002V6.32996H9.22998V5.80994H0V47.45H237.17V5.80994H156.11Z" fill="url(#paint0_linear_2003_42)"/>
<defs>
<linearGradient id="paint0_linear_2003_42" x1="0" y1="26.6299" x2="251.5" y2="36" gradientUnits="userSpaceOnUse">
<stop/>
<stop offset="1" stop-opacity="0.1"/>
</linearGradient>
</defs>
</svg>
