<svg width="248" height="37" viewBox="0 0 248 37" fill="none" xmlns="http://www.w3.org/2000/svg">
<path d="M31.156 37L6.63173 22.5218V35.8181H0V10.9655L30.4994 28.9237L61.8196 2.59375V35.8181H55.155V16.8093L31.156 37Z" fill="black"/>
<path d="M74.0984 31.78C74.0984 30.2369 74.4923 28.3985 75.904 27.6105C76.7576 27.1509 78.1037 26.8883 78.7603 26.7241C79.1871 26.5928 79.5482 26.363 79.5482 26.0018H80.5331C80.5331 26.8883 80.0735 27.3151 79.2527 27.5449C78.6946 27.709 77.1844 27.9388 76.3965 28.3656C75.5101 28.8252 75.0833 29.843 74.952 31.1234H74.9848C75.4773 29.9415 76.5607 29.2849 77.9067 29.2849C79.8437 29.2849 81.1569 30.6309 81.1569 32.6007C81.1569 34.5705 79.778 36.0479 77.6112 36.0479C75.6086 36.0479 74.0327 34.866 74.0327 31.8128M80.1063 32.6664C80.1063 31.1562 79.0229 30.2369 77.6441 30.2369C76.2652 30.2369 75.1818 31.1562 75.1818 32.6336C75.1818 34.1109 76.298 35.063 77.6441 35.063C78.9901 35.063 80.1063 34.1438 80.1063 32.6664Z" fill="black"/>
<path d="M82.5356 29.3832H83.5862V34.2749H83.6191L87.3289 29.3832H88.3466V35.8179H87.3289V30.8934H87.2961L83.5862 35.8179H82.5356V29.3832Z" fill="black"/>
<path d="M89.4298 35.3911L89.8566 34.5048C90.4147 34.7674 91.137 35.0629 92.1547 35.0629C93.1725 35.0629 93.9604 34.8002 93.9604 33.9467C93.9604 33.0931 93.3366 32.8632 92.1875 32.8632H90.9728V31.9769H92.1219C93.1068 31.9769 93.7306 31.747 93.7306 31.0247C93.7306 30.3681 93.1396 30.0727 92.1547 30.0727C91.3011 30.0727 90.5132 30.3025 89.9551 30.5323L89.5939 29.6131C90.1849 29.3833 91.137 29.1534 92.1875 29.1534C93.8291 29.1534 94.814 29.7444 94.814 30.8278C94.814 31.6485 94.2559 32.2066 93.271 32.3379C94.3544 32.4693 94.9781 33.0274 94.9781 34.0451C94.9781 35.227 94.1245 36.0149 92.0891 36.0149C90.94 36.0149 90.0536 35.7523 89.397 35.3911" fill="black"/>
<path d="M102.201 29.3832V35.8179H101.183V32.8632H97.3751V35.8179H96.3901V29.3832H97.3751V31.9439H101.183V29.3832H102.201Z" fill="black"/>
<path d="M109.949 32.535V32.7319H104.532C104.532 34.1436 105.517 35.0301 106.863 35.0301C108.078 35.0301 108.701 34.3078 109.095 33.8154L109.818 34.4719C109.325 35.1285 108.504 36.0149 106.863 36.0149C104.827 36.0149 103.481 34.6361 103.481 32.6006C103.481 30.5651 104.795 29.1534 106.797 29.1534C108.931 29.1534 109.916 30.6308 109.916 32.535M104.565 31.944H108.833C108.734 30.7621 108.012 30.0727 106.764 30.0727C105.648 30.0727 104.729 30.7293 104.598 31.944" fill="black"/>
<path d="M110.868 32.6006C110.868 30.5651 112.313 29.1863 114.414 29.1863C115.235 29.1863 115.957 29.4161 116.646 29.8429L116.154 30.6964C115.596 30.3681 115.038 30.1712 114.381 30.1712C112.904 30.1712 111.952 31.2546 111.952 32.6335C111.952 34.0124 112.904 35.0957 114.381 35.0957C115.038 35.0957 115.596 34.8987 116.154 34.5704L116.646 35.424C115.957 35.8508 115.267 36.0478 114.414 36.0478C112.346 36.0478 110.868 34.669 110.868 32.6335" fill="black"/>
<path d="M81.091 4.23523C84.8009 4.23523 87.8213 6.92736 87.8213 10.6372C87.8213 14.347 84.768 17.0719 81.2552 17.0719C79.6137 17.0719 78.0378 16.6123 76.8559 15.2662H76.7246V24.5901H74.2295V11.6549C74.2295 7.12433 76.8559 4.23523 81.0582 4.23523M81.0254 14.9051C83.4877 14.9051 85.162 12.9682 85.162 10.6372C85.162 8.30624 83.5205 6.40205 81.0254 6.40205C78.5303 6.40205 76.7903 8.30624 76.7903 10.6372C76.7903 12.9682 78.5303 14.938 81.0254 14.938" fill="black"/>
<path d="M90.1191 10.6372C90.1191 6.96019 93.238 4.23523 96.915 4.23523C100.592 4.23523 103.711 6.96019 103.711 10.6372C103.711 14.3142 100.592 17.0391 96.915 17.0391C93.238 17.0391 90.1191 14.3142 90.1191 10.6372ZM96.915 14.9051C99.4101 14.9051 101.085 13.001 101.085 10.6372C101.085 8.27341 99.4101 6.36923 96.915 6.36923C94.4199 6.36923 92.7456 8.24058 92.7456 10.6372C92.7456 13.0338 94.4199 14.9051 96.915 14.9051Z" fill="black"/>
<path d="M112.904 17.0719C108.997 17.0719 106.042 14.3798 106.042 10.67C106.042 6.96015 108.931 4.26807 112.805 4.26807C115.793 4.26807 118.583 5.87672 119.273 8.89711H116.712C116.088 7.25559 114.611 6.43483 112.871 6.43483C110.244 6.43483 108.636 8.37187 108.636 10.7357C108.636 13.0994 110.277 14.9379 112.904 14.9379C114.611 14.9379 116.154 14.15 116.745 12.3772H119.305C118.386 15.5946 115.727 17.0719 112.838 17.0719" fill="black"/>
<path d="M128.564 15.299L124.493 6.82878H124.427V16.8092H122.031V4.4978H125.839L129.877 12.9024H129.943L133.981 4.4978H137.822V16.8092H135.426V6.82878H135.36L131.256 15.299H128.564Z" fill="black"/>
<path d="M140.481 10.6372C140.481 6.96019 143.6 4.23523 147.277 4.23523C150.954 4.23523 154.073 6.96019 154.073 10.6372C154.073 14.3142 150.954 17.0391 147.277 17.0391C143.6 17.0391 140.481 14.3142 140.481 10.6372ZM147.277 14.9051C149.772 14.9051 151.447 13.001 151.447 10.6372C151.447 8.27341 149.772 6.36923 147.277 6.36923C144.782 6.36923 143.108 8.24058 143.108 10.6372C143.108 13.0338 144.782 14.9051 147.277 14.9051Z" fill="black"/>
<path d="M155.32 16.9076V14.3468H155.386C155.878 14.3468 156.437 14.117 156.798 13.723C157.257 13.2306 157.487 12.3113 157.75 10.9653L158.111 8.99548C158.505 6.73018 159.326 4.43201 162.773 4.43201H167.632V16.7763H165.137V6.69731H163.2C161.263 6.69731 160.869 7.22262 160.409 9.84905L160.081 11.6875C159.785 13.3619 159.358 14.8393 158.472 15.7585C157.783 16.448 156.863 16.8747 155.583 16.8747H155.32V16.9076Z" fill="black"/>
<path d="M170.357 10.6372C170.357 6.96019 173.476 4.23523 177.153 4.23523C180.83 4.23523 183.949 6.96019 183.949 10.6372C183.949 14.3142 180.83 17.0391 177.153 17.0391C173.476 17.0391 170.357 14.3142 170.357 10.6372ZM177.153 14.9051C179.648 14.9051 181.322 13.001 181.322 10.6372C181.322 8.27341 179.648 6.36923 177.153 6.36923C174.658 6.36923 172.983 8.24058 172.983 10.6372C172.983 13.0338 174.658 14.9051 177.153 14.9051Z" fill="black"/>
<path d="M186.838 19.7966H184.441V14.511H186.05C186.772 13.723 187.133 12.5411 187.461 11.1294L187.987 8.83132C188.512 6.63168 189.464 4.43201 192.517 4.43201H197.343V14.511H199.149V19.7966H196.752V16.8091H186.805V19.7966H186.838ZM194.914 14.5766V6.69731H192.583C191.073 6.69731 190.547 7.8792 190.252 9.15959L189.694 11.5234C189.398 12.8366 188.939 13.92 188.479 14.3797V14.5438H194.914V14.5766Z" fill="black"/>
<path d="M207.849 17.0718C203.877 17.0718 201.021 14.3469 201.021 10.6699C201.021 6.99287 203.91 4.26796 207.751 4.26796C210.738 4.26796 214.317 6.20493 214.317 10.8668V11.3593H203.483C203.745 13.4276 205.354 14.905 207.816 14.905C209.261 14.905 211.001 14.3797 211.493 13.1322H214.054C213.266 15.8242 210.377 17.0718 207.849 17.0718ZM203.548 0H206.109V2.56077H203.548V0ZM211.756 9.45516C211.362 7.58383 209.918 6.33624 207.751 6.33624C205.584 6.33624 204.107 7.68232 203.647 9.45516H211.789H211.756ZM209.162 0H211.723V2.56077H209.162V0Z" fill="black"/>
<path d="M226.037 4.4978V9.38955H228.105L231.027 4.4978H233.752L230.141 10.3745L234.08 16.8092H231.29L228.138 11.622H226.037V16.8092H223.673V11.622H221.572L218.42 16.8092H215.663L219.569 10.3745L215.958 4.4978H218.683L221.605 9.38955H223.673V4.4978H226.037Z" fill="black"/>
<path d="M235.821 11.2609V4.4978H238.283V8.01068H238.382C239.432 6.73029 240.745 6.13932 242.354 6.13932C245.407 6.13932 247.87 8.40462 247.87 11.5235C247.87 14.6424 245.342 17.0718 241.894 17.0718C238.447 17.0718 235.854 14.6424 235.854 11.2609M241.862 14.905C243.831 14.905 245.276 13.5262 245.276 11.622C245.276 9.71783 243.831 8.30614 241.862 8.30614C239.892 8.30614 238.48 9.71783 238.48 11.622C238.48 13.5262 239.925 14.905 241.862 14.905Z" fill="black"/>
</svg>
