<svg width="138" height="138" viewBox="0 0 138 138" fill="none" xmlns="http://www.w3.org/2000/svg">
<path d="M43.3339 111.951C42.6229 111.526 42.3931 110.607 42.8195 109.895L92.6695 26.6215C93.0958 25.9094 94.0139 25.678 94.7249 26.1036C95.4359 26.5292 95.6656 27.4476 95.2393 28.1598L45.3893 111.433C44.963 112.146 44.0449 112.377 43.3339 111.951Z" fill="black"/>
<path d="M109.89 95.231L26.6215 45.3892C25.9093 44.9629 25.6792 44.043 26.1062 43.3297C26.5332 42.6163 27.4528 42.3846 28.1649 42.8109L111.434 92.6527C112.146 93.0789 112.376 93.9988 111.949 94.7122C111.522 95.4255 110.602 95.6572 109.89 95.231Z" fill="black"/>
<path d="M80.0395 117.372C79.7136 117.177 79.4563 116.848 79.3568 116.45L55.7992 22.3285C55.5966 21.5192 56.0851 20.7036 56.8892 20.5083C57.6985 20.3045 58.5131 20.7919 58.707 21.596L82.2646 115.718C82.4672 116.527 81.9787 117.342 81.1746 117.538C80.7768 117.638 80.3653 117.567 80.0395 117.372Z" fill="black"/>
<path d="M21.1999 82.1657C20.8741 81.9707 20.6168 81.6419 20.5172 81.2441C20.3147 80.4348 20.8031 79.6192 21.6073 79.4239L115.729 55.7143C116.538 55.5104 117.353 55.9978 117.547 56.8019C117.749 57.6112 117.261 58.4269 116.457 58.6221L22.335 82.3318C21.9373 82.432 21.5257 82.3606 21.1999 82.1657Z" fill="black"/>
</svg>
