<svg width="21" height="21" viewBox="0 0 21 21" fill="none" xmlns="http://www.w3.org/2000/svg">
<path d="M8.87533 5.79915C9.56361 4.08328 9.90775 3.22534 10.4995 3.22534C11.0913 3.22534 11.4355 4.08328 12.1237 5.79915L12.1558 5.87905C12.5446 6.84844 12.7391 7.33313 13.1353 7.62773C13.5315 7.92234 14.0517 7.96892 15.092 8.06209L15.2801 8.07893C16.9826 8.23141 17.8339 8.30765 18.0161 8.84926C18.1983 9.39087 17.566 9.96605 16.3016 11.1164L15.8796 11.5003C15.2396 12.0827 14.9195 12.3738 14.7704 12.7554C14.7425 12.8266 14.7194 12.8995 14.7011 12.9738C14.6031 13.3716 14.6968 13.794 14.8842 14.6388L14.9426 14.9017C15.287 16.4543 15.4593 17.2305 15.1585 17.5654C15.0462 17.6905 14.9001 17.7806 14.7379 17.8248C14.3037 17.9433 13.6873 17.441 12.4545 16.4364C11.6449 15.7768 11.2402 15.447 10.7755 15.3728C10.5927 15.3436 10.4064 15.3436 10.2236 15.3728C9.75889 15.447 9.35413 15.7768 8.5446 16.4364C7.31177 17.441 6.69535 17.9433 6.26118 17.8248C6.09894 17.7806 5.95289 17.6905 5.84052 17.5654C5.5398 17.2305 5.71203 16.4543 6.0565 14.9017L6.11484 14.6388C6.30227 13.794 6.39599 13.3716 6.29794 12.9738C6.27965 12.8995 6.25652 12.8266 6.22869 12.7554C6.07953 12.3738 5.75949 12.0827 5.11943 11.5003L4.69743 11.1164C3.43302 9.96605 2.80081 9.39087 2.98297 8.84926C3.16512 8.30765 4.01642 8.23141 5.719 8.07893L5.90707 8.06209C6.94738 7.96892 7.46753 7.92234 7.86377 7.62773C8.26001 7.33313 8.45444 6.84844 8.84328 5.87905L8.87533 5.79915Z" stroke="#FFCD00" stroke-width="2"/>
</svg>
