<svg width="46" height="35" viewBox="0 0 46 35" fill="none" xmlns="http://www.w3.org/2000/svg">
<g clip-path="url(#clip0_44_3972)">
<g clip-path="url(#clip1_44_3972)">
<mask id="mask0_44_3972" style="mask-type:luminance" maskUnits="userSpaceOnUse" x="2" y="0" width="34" height="35">
<path d="M35.5828 0.926758H2.42676V34.0828H35.5828V0.926758Z" fill="white"/>
</mask>
<g mask="url(#mask0_44_3972)">
<path fill-rule="evenodd" clip-rule="evenodd" d="M4.76343 3.26349C2.43652 5.59039 2.43652 9.34094 2.43652 16.842V18.1773C2.43652 25.6784 2.43652 29.4289 4.76343 31.7558C7.09034 34.0828 10.8409 34.0828 18.342 34.0828H19.6773C27.1783 34.0828 30.9289 34.0828 33.2558 31.7558C35.5827 29.4289 35.5827 25.6784 35.5827 18.1773V16.8322C35.5827 9.33112 35.5827 5.58058 33.2558 3.25367C30.9289 0.926758 27.1685 0.926758 19.6674 0.926758H18.3322C10.8311 0.926758 7.08052 0.926758 4.76343 3.26349ZM8.03289 11.0198C8.20961 19.6402 12.5198 24.8144 20.07 24.8144H20.4725V19.9053C21.8026 20.0698 23.0544 20.6235 24.071 21.4969C25.0876 22.3702 25.8236 23.5243 26.1867 24.8144H30.114C29.703 23.3349 28.9853 21.9584 28.0076 20.7744C27.0299 19.5903 25.8141 18.6252 24.4391 17.9417C25.6762 17.1907 26.7454 16.1929 27.5799 15.0104C28.4143 13.8279 28.9962 12.4862 29.2892 11.0689H25.7449C24.9692 13.7984 22.6718 16.2922 20.4922 16.518V11.01H16.9282V20.5631C14.7191 20.0133 11.9307 17.3329 11.8031 11.01L8.03289 11.0198Z" fill="black"/>
</g>
</g>
</g>
<defs>
<clipPath id="clip0_44_3972">
<rect width="54" height="35" fill="white" transform="translate(-8)"/>
</clipPath>
<clipPath id="clip1_44_3972">
<rect width="54" height="34.3636" fill="white" transform="translate(-8 0.318359)"/>
</clipPath>
</defs>
</svg>
