<svg width="1903" height="78" viewBox="0 0 1903 78" fill="none" xmlns="http://www.w3.org/2000/svg">
<g clip-path="url(#clip0_2003_63)">
<path d="M101.84 77.69H34.12L32.62 76.19V19.91L34.12 18.41H82.48L83.98 19.91V57.55L82.48 59.05H52.29L50.79 57.55V38.56L52.29 37.06H67.14C67.97 37.06 68.64 37.73 68.64 38.56C68.64 39.39 67.97 40.06 67.14 40.06H53.79V56.05H80.98V21.41H35.62V74.69H100.33V3H17.24V76.19L15.74 77.69H-16.5C-17.33 77.69 -18 77.02 -18 76.19C-18 75.36 -17.33 74.69 -16.5 74.69H14.23V1.5L15.73 0H101.83L103.33 1.5V76.19L101.83 77.69H101.84Z" fill="white"/>
<path d="M207.69 77.69H139.98L138.48 76.19V19.91L139.98 18.41H188.34L189.84 19.91V57.55L188.34 59.05H158.15L156.65 57.55V38.56L158.15 37.06H173C173.83 37.06 174.5 37.73 174.5 38.56C174.5 39.39 173.83 40.06 173 40.06H159.65V56.05H186.84V21.41H141.48V74.69H206.19V3H123.09V76.19L121.59 77.69H100.2C99.3702 77.69 98.7002 77.02 98.7002 76.19C98.7002 75.36 99.3702 74.69 100.2 74.69H120.09V1.5L121.59 0H207.69L209.19 1.5V76.19L207.69 77.69Z" fill="white"/>
<path d="M313.55 77.69H245.84L244.34 76.19V19.91L245.84 18.41H294.2L295.7 19.91V57.55L294.2 59.05H264.01L262.51 57.55V38.56L264.01 37.06H278.86C279.69 37.06 280.36 37.73 280.36 38.56C280.36 39.39 279.69 40.06 278.86 40.06H265.51V56.05H292.7V21.41H247.34V74.69H312.05V3H228.95V76.19L227.45 77.69H206.06C205.23 77.69 204.56 77.02 204.56 76.19C204.56 75.36 205.23 74.69 206.06 74.69H225.95V1.5L227.45 0H313.55L315.05 1.5V76.19L313.55 77.69Z" fill="white"/>
<path d="M419.4 77.69H351.69L350.19 76.19V19.91L351.69 18.41H400.05L401.55 19.91V57.55L400.05 59.05H369.86L368.36 57.55V38.56L369.86 37.06H384.71C385.54 37.06 386.21 37.73 386.21 38.56C386.21 39.39 385.54 40.06 384.71 40.06H371.36V56.05H398.55V21.41H353.19V74.69H417.9V3H334.8V76.19L333.3 77.69H311.91C311.08 77.69 310.41 77.02 310.41 76.19C310.41 75.36 311.08 74.69 311.91 74.69H331.8V1.5L333.3 0H419.4L420.9 1.5V76.19L419.4 77.69Z" fill="white"/>
<path d="M525.26 77.69H457.54L456.04 76.19V19.91L457.54 18.41H505.9L507.4 19.91V57.55L505.9 59.05H475.71L474.21 57.55V38.56L475.71 37.06H490.56C491.39 37.06 492.06 37.73 492.06 38.56C492.06 39.39 491.39 40.06 490.56 40.06H477.21V56.05H504.4V21.41H459.04V74.69H523.76V3H440.66V76.19L439.16 77.69H417.77C416.94 77.69 416.27 77.02 416.27 76.19C416.27 75.36 416.94 74.69 417.77 74.69H437.66V1.5L439.16 0H525.26L526.76 1.5V76.19L525.26 77.69Z" fill="white"/>
<path d="M631.12 77.69H563.4L561.9 76.19V19.91L563.4 18.41H611.76L613.26 19.91V57.55L611.76 59.05H581.57L580.07 57.55V38.56L581.57 37.06H596.42C597.25 37.06 597.92 37.73 597.92 38.56C597.92 39.39 597.25 40.06 596.42 40.06H583.07V56.05H610.26V21.41H564.9V74.69H629.62V3H546.52V76.19L545.02 77.69H523.63C522.8 77.69 522.13 77.02 522.13 76.19C522.13 75.36 522.8 74.69 523.63 74.69H543.52V1.5L545.02 0H631.12L632.62 1.5V76.19L631.12 77.69Z" fill="white"/>
<path d="M736.97 77.69H669.25L667.75 76.19V19.91L669.25 18.41H717.61L719.11 19.91V57.55L717.61 59.05H687.42L685.92 57.55V38.56L687.42 37.06H702.27C703.1 37.06 703.77 37.73 703.77 38.56C703.77 39.39 703.1 40.06 702.27 40.06H688.92V56.05H716.11V21.41H670.75V74.69H735.47V3H652.37V76.19L650.87 77.69H629.48C628.65 77.69 627.98 77.02 627.98 76.19C627.98 75.36 628.65 74.69 629.48 74.69H649.37V1.5L650.87 0H736.97L738.47 1.5V76.19L736.97 77.69Z" fill="white"/>
<path d="M842.83 77.69H775.11L773.61 76.19V19.91L775.11 18.41H823.47L824.97 19.91V57.55L823.47 59.05H793.28L791.78 57.55V38.56L793.28 37.06H808.13C808.96 37.06 809.63 37.73 809.63 38.56C809.63 39.39 808.96 40.06 808.13 40.06H794.78V56.05H821.97V21.41H776.61V74.69H841.33V3H758.23V76.19L756.73 77.69H735.34C734.51 77.69 733.84 77.02 733.84 76.19C733.84 75.36 734.51 74.69 735.34 74.69H755.23V1.5L756.73 0H842.83L844.33 1.5V76.19L842.83 77.69Z" fill="white"/>
<path d="M948.68 77.69H880.96L879.46 76.19V19.91L880.96 18.41H929.32L930.82 19.91V57.55L929.32 59.05H899.13L897.63 57.55V38.56L899.13 37.06H913.98C914.81 37.06 915.48 37.73 915.48 38.56C915.48 39.39 914.81 40.06 913.98 40.06H900.63V56.05H927.82V21.41H882.46V74.69H947.18V3H864.08V76.19L862.58 77.69H841.19C840.36 77.69 839.69 77.02 839.69 76.19C839.69 75.36 840.36 74.69 841.19 74.69H861.08V1.5L862.58 0H948.68L950.18 1.5V76.19L948.68 77.69Z" fill="white"/>
<path d="M1054.54 77.69H986.82L985.32 76.19V19.91L986.82 18.41H1035.18L1036.68 19.91V57.55L1035.18 59.05H1004.99L1003.49 57.55V38.56L1004.99 37.06H1019.84C1020.67 37.06 1021.34 37.73 1021.34 38.56C1021.34 39.39 1020.67 40.06 1019.84 40.06H1006.49V56.05H1033.68V21.41H988.32V74.69H1053.04V3H969.94V76.19L968.44 77.69H947.05C946.22 77.69 945.55 77.02 945.55 76.19C945.55 75.36 946.22 74.69 947.05 74.69H966.94V1.5L968.44 0H1054.54L1056.04 1.5V76.19L1054.54 77.69Z" fill="white"/>
<path d="M1160.39 77.69H1092.67L1091.17 76.19V19.91L1092.67 18.41H1141.03L1142.53 19.91V57.55L1141.03 59.05H1110.84L1109.34 57.55V38.56L1110.84 37.06H1125.69C1126.52 37.06 1127.19 37.73 1127.19 38.56C1127.19 39.39 1126.52 40.06 1125.69 40.06H1112.34V56.05H1139.53V21.41H1094.17V74.69H1158.89V3H1075.79V76.19L1074.29 77.69H1052.9C1052.07 77.69 1051.4 77.02 1051.4 76.19C1051.4 75.36 1052.07 74.69 1052.9 74.69H1072.79V1.5L1074.29 0H1160.39L1161.89 1.5V76.19L1160.39 77.69Z" fill="white"/>
<path d="M1266.25 77.69H1198.53L1197.03 76.19V19.91L1198.53 18.41H1246.89L1248.39 19.91V57.55L1246.89 59.05H1216.7L1215.2 57.55V38.56L1216.7 37.06H1231.55C1232.38 37.06 1233.05 37.73 1233.05 38.56C1233.05 39.39 1232.38 40.06 1231.55 40.06H1218.2V56.05H1245.39V21.41H1200.03V74.69H1264.75V3H1181.65V76.19L1180.15 77.69H1158.76C1157.93 77.69 1157.26 77.02 1157.26 76.19C1157.26 75.36 1157.93 74.69 1158.76 74.69H1178.65V1.5L1180.15 0H1266.25L1267.75 1.5V76.19L1266.25 77.69Z" fill="white"/>
<path d="M1372.1 77.69H1304.39L1302.89 76.19V19.91L1304.39 18.41H1352.75L1354.25 19.91V57.55L1352.75 59.05H1322.56L1321.06 57.55V38.56L1322.56 37.06H1337.41C1338.24 37.06 1338.91 37.73 1338.91 38.56C1338.91 39.39 1338.24 40.06 1337.41 40.06H1324.06V56.05H1351.25V21.41H1305.89V74.69H1370.6V3H1287.5V76.19L1286 77.69H1264.61C1263.78 77.69 1263.11 77.02 1263.11 76.19C1263.11 75.36 1263.78 74.69 1264.61 74.69H1284.5V1.5L1286 0H1372.1L1373.6 1.5V76.19L1372.1 77.69Z" fill="white"/>
<path d="M1477.96 77.69H1410.25L1408.75 76.19V19.91L1410.25 18.41H1458.61L1460.11 19.91V57.55L1458.61 59.05H1428.42L1426.92 57.55V38.56L1428.42 37.06H1443.27C1444.1 37.06 1444.77 37.73 1444.77 38.56C1444.77 39.39 1444.1 40.06 1443.27 40.06H1429.92V56.05H1457.11V21.41H1411.75V74.69H1476.46V3H1393.36V76.19L1391.86 77.69H1370.47C1369.64 77.69 1368.97 77.02 1368.97 76.19C1368.97 75.36 1369.64 74.69 1370.47 74.69H1390.36V1.5L1391.86 0H1477.96L1479.46 1.5V76.19L1477.96 77.69Z" fill="white"/>
<path d="M1583.82 77.69H1516.11L1514.61 76.19V19.91L1516.11 18.41H1564.47L1565.97 19.91V57.55L1564.47 59.05H1534.28L1532.78 57.55V38.56L1534.28 37.06H1549.13C1549.96 37.06 1550.63 37.73 1550.63 38.56C1550.63 39.39 1549.96 40.06 1549.13 40.06H1535.78V56.05H1562.97V21.41H1517.61V74.69H1582.32V3H1499.22V76.19L1497.72 77.69H1476.33C1475.5 77.69 1474.83 77.02 1474.83 76.19C1474.83 75.36 1475.5 74.69 1476.33 74.69H1496.22V1.5L1497.72 0H1583.82L1585.32 1.5V76.19L1583.82 77.69Z" fill="white"/>
<path d="M1689.67 77.69H1621.96L1620.46 76.19V19.91L1621.96 18.41H1670.32L1671.82 19.91V57.55L1670.32 59.05H1640.13L1638.63 57.55V38.56L1640.13 37.06H1654.98C1655.81 37.06 1656.48 37.73 1656.48 38.56C1656.48 39.39 1655.81 40.06 1654.98 40.06H1641.63V56.05H1668.82V21.41H1623.46V74.69H1688.17V3H1605.07V76.19L1603.57 77.69H1582.18C1581.35 77.69 1580.68 77.02 1580.68 76.19C1580.68 75.36 1581.35 74.69 1582.18 74.69H1602.07V1.5L1603.57 0H1689.67L1691.17 1.5V76.19L1689.67 77.69Z" fill="white"/>
<path d="M1795.53 77.69H1727.82L1726.32 76.19V19.91L1727.82 18.41H1776.18L1777.68 19.91V57.55L1776.18 59.05H1745.99L1744.49 57.55V38.56L1745.99 37.06H1760.84C1761.67 37.06 1762.34 37.73 1762.34 38.56C1762.34 39.39 1761.67 40.06 1760.84 40.06H1747.49V56.05H1774.68V21.41H1729.32V74.69H1794.03V3H1710.93V76.19L1709.43 77.69H1688.04C1687.21 77.69 1686.54 77.02 1686.54 76.19C1686.54 75.36 1687.21 74.69 1688.04 74.69H1707.93V1.5L1709.43 0H1795.53L1797.03 1.5V76.19L1795.53 77.69Z" fill="white"/>
<path d="M1901.38 77.69H1833.67L1832.17 76.19V19.91L1833.67 18.41H1882.03L1883.53 19.91V57.55L1882.03 59.05H1851.84L1850.34 57.55V38.56L1851.84 37.06H1866.69C1867.52 37.06 1868.19 37.73 1868.19 38.56C1868.19 39.39 1867.52 40.06 1866.69 40.06H1853.34V56.05H1880.53V21.41H1835.17V74.69H1899.88V3H1816.78V76.19L1815.28 77.69H1793.89C1793.06 77.69 1792.39 77.02 1792.39 76.19C1792.39 75.36 1793.06 74.69 1793.89 74.69H1813.78V1.5L1815.28 0H1901.38L1902.88 1.5V76.19L1901.38 77.69Z" fill="white"/>
</g>
<defs>
<clipPath id="clip0_2003_63">
<rect width="1903" height="78" fill="white"/>
</clipPath>
</defs>
</svg>
